<svg width="1920" height="560" viewBox="0 0 1920 560" fill="none" xmlns="http://www.w3.org/2000/svg">
<g id="Shape">
<path fill-rule="evenodd" clip-rule="evenodd" d="M582.042 384.755C586.379 384.755 589.896 388.257 589.896 392.578C589.896 400.658 596.397 407.093 604.274 407.093C612.152 407.093 618.653 400.658 618.653 392.578C618.653 388.257 622.17 384.755 626.507 384.755C630.845 384.755 634.361 388.257 634.361 392.578C634.361 409.172 620.955 422.739 604.274 422.739C587.594 422.739 574.188 409.172 574.188 392.578C574.188 388.257 577.704 384.755 582.042 384.755Z" fill="#1D2330"/>
<path fill-rule="evenodd" clip-rule="evenodd" d="M626.506 19.4977C615.519 19.4977 606.521 28.4452 606.521 39.5972C606.521 50.7492 615.519 59.6967 626.506 59.6967C630.844 59.6967 634.36 63.1992 634.36 67.5198C634.36 71.8404 630.844 75.343 626.506 75.343C606.74 75.343 590.813 59.2876 590.813 39.5972C590.813 19.9067 606.74 3.85142 626.506 3.85142C630.844 3.85142 634.36 7.35396 634.36 11.6746C634.36 15.9952 630.844 19.4977 626.506 19.4977Z" fill="#1D2330"/>
<path fill-rule="evenodd" clip-rule="evenodd" d="M271.555 0.385131C275.892 0.385131 279.409 3.88768 279.409 8.20828V34.3616C279.409 51.4529 265.517 65.3293 248.355 65.3293C231.193 65.3293 217.302 51.4529 217.302 34.3616C217.302 30.041 220.818 26.5385 225.156 26.5385C229.493 26.5385 233.01 30.041 233.01 34.3616C233.01 42.8348 239.892 49.683 248.355 49.683C256.819 49.683 263.701 42.8348 263.701 34.3616V8.20828C263.701 3.88768 267.217 0.385131 271.555 0.385131Z" fill="#1D2330"/>
<path fill-rule="evenodd" clip-rule="evenodd" d="M60.917 455.861C36.3351 455.861 16.4811 475.589 16.4811 499.839C16.4811 524.089 36.3351 543.817 60.917 543.817C65.2547 543.817 68.771 547.32 68.771 551.641C68.771 555.961 65.2547 559.464 60.917 559.464C27.7411 559.464 0.773151 532.811 0.773151 499.839C0.773151 466.867 27.7411 440.215 60.917 440.215H108.772C113.109 440.215 116.626 443.717 116.626 448.038C116.626 452.358 113.109 455.861 108.772 455.861H60.917Z" fill="#1D2330"/>
<path fill-rule="evenodd" clip-rule="evenodd" d="M57.7254 490.524C52.2075 490.524 48.1874 494.766 48.1874 499.454C48.1874 504.142 52.2075 508.384 57.7254 508.384C62.0631 508.384 65.5794 511.887 65.5794 516.208C65.5794 520.528 62.0631 524.031 57.7254 524.031C44.0322 524.031 32.4794 513.273 32.4794 499.454C32.4794 485.635 44.0322 474.877 57.7254 474.877H76.2926C80.6303 474.877 84.1466 478.38 84.1466 482.7C84.1466 487.021 80.6303 490.524 76.2926 490.524H57.7254Z" fill="#1D2330"/>
<path fill-rule="evenodd" clip-rule="evenodd" d="M0 34.3993C0 15.4412 15.7458 0.386615 34.7759 0.386615L110.705 0.386796C115.043 0.386806 118.559 3.88936 118.559 8.20997C118.559 12.5306 115.043 16.0331 110.705 16.0331L34.7759 16.0329C24.0689 16.0329 15.708 24.4292 15.708 34.3993C15.708 38.7199 12.1916 42.2224 7.85399 42.2224C3.51635 42.2224 0 38.7199 0 34.3993Z" fill="#1D2330"/>
<path fill-rule="evenodd" clip-rule="evenodd" d="M579.843 43.256C579.843 19.9831 560.853 1.15543 537.476 1.15543L440.138 1.15567C435.801 1.15568 432.284 4.65823 432.284 8.97884C432.284 13.2994 435.801 16.802 440.138 16.802L537.476 16.8017C552.221 16.8017 564.135 28.6671 564.135 43.256C564.135 47.5766 567.651 51.0792 571.989 51.0792C576.326 51.0792 579.843 47.5766 579.843 43.256Z" fill="#1D2330"/>
<path fill-rule="evenodd" clip-rule="evenodd" d="M572.254 120.931C572.254 103.876 586.199 90.1228 603.307 90.1228C620.416 90.1228 634.361 103.876 634.361 120.931V185.758C634.361 190.078 630.845 193.581 626.507 193.581C622.169 193.581 618.653 190.078 618.653 185.758V120.931C618.653 112.597 611.82 105.769 603.307 105.769C594.794 105.769 587.962 112.597 587.962 120.931V130.966C587.962 135.286 584.445 138.789 580.108 138.789C575.77 138.789 572.254 135.286 572.254 130.966V120.931Z" fill="#1D2330"/>
<path fill-rule="evenodd" clip-rule="evenodd" d="M158.558 226.462C162.896 226.462 166.412 229.965 166.412 234.285V259.044C166.412 284.89 187.42 305.827 213.316 305.827H235.126C257.669 305.827 275.928 324.048 275.928 346.506C275.928 350.827 272.412 354.329 268.074 354.329C263.737 354.329 260.22 350.827 260.22 346.506C260.22 332.672 248.977 321.473 235.126 321.473H213.316C178.728 321.473 150.704 293.514 150.704 259.044V234.285C150.704 229.965 154.22 226.462 158.558 226.462ZM159.175 411.063C159.175 389.377 176.908 371.867 198.694 371.867H268.075C272.413 371.867 275.929 375.369 275.929 379.69C275.929 384.01 272.413 387.513 268.075 387.513H198.694C185.505 387.513 174.883 398.096 174.883 411.063C174.883 424.03 185.505 434.614 198.694 434.614H227.33C231.667 434.614 235.184 438.116 235.184 442.437C235.184 446.757 231.667 450.26 227.33 450.26H198.694C176.908 450.26 159.175 432.75 159.175 411.063ZM227.535 467.194C231.873 467.194 235.389 470.696 235.389 475.017C235.389 497.31 217.265 515.396 194.889 515.396H145.559C137.704 515.396 131.318 521.75 131.318 529.609C131.318 537.462 137.703 543.817 145.559 543.817H149.695C154.033 543.817 157.549 547.32 157.549 551.641C157.549 555.961 154.033 559.464 149.695 559.464H145.559C129.011 559.464 115.61 546.086 115.61 529.609C115.61 513.128 129.01 499.75 145.559 499.75H194.889C208.573 499.75 219.681 488.686 219.681 475.017C219.681 470.696 223.198 467.194 227.535 467.194Z" fill="#1D2330"/>
<path fill-rule="evenodd" clip-rule="evenodd" d="M211.889 159.183C211.889 146.354 222.33 135.954 235.209 135.954C248.089 135.954 258.53 146.354 258.53 159.183C258.53 172.012 248.089 182.412 235.209 182.412C222.33 182.412 211.889 172.012 211.889 159.183ZM235.209 151.601C231.005 151.601 227.597 154.995 227.597 159.183C227.597 163.371 231.005 166.765 235.209 166.765C239.414 166.765 242.822 163.371 242.822 159.183C242.822 154.995 239.414 151.601 235.209 151.601Z" fill="#1D2330"/>
<path fill-rule="evenodd" clip-rule="evenodd" d="M247.461 468.258C247.461 451.643 261.082 438.289 277.741 438.289C294.4 438.289 308.021 451.643 308.021 468.258C308.021 484.873 294.4 498.226 277.741 498.226C261.082 498.226 247.461 484.873 247.461 468.258ZM277.741 453.935C269.629 453.935 263.169 460.411 263.169 468.258C263.169 476.104 269.629 482.58 277.741 482.58C285.853 482.58 292.313 476.104 292.313 468.258C292.313 460.411 285.853 453.935 277.741 453.935Z" fill="#1D2330"/>
<path fill-rule="evenodd" clip-rule="evenodd" d="M46.7854 106.804C46.7854 89.0828 61.2078 74.717 78.9988 74.717C96.7898 74.717 111.212 89.0828 111.212 106.804C111.212 124.525 96.7898 138.891 78.9988 138.891C61.2078 138.891 46.7854 124.525 46.7854 106.804ZM78.9988 90.3633C69.8831 90.3633 62.4934 97.7241 62.4934 106.804C62.4934 115.884 69.8831 123.245 78.9988 123.245C88.1145 123.245 95.5043 115.884 95.5043 106.804C95.5043 97.7241 88.1145 90.3633 78.9988 90.3633Z" fill="#1D2330"/>
<path fill-rule="evenodd" clip-rule="evenodd" d="M17.0129 106.226C17.0129 72.3405 44.9583 45.0614 79.1923 45.0614C113.426 45.0614 141.372 72.3405 141.372 106.226C141.372 140.112 113.426 167.391 79.1923 167.391C74.8547 167.391 71.3383 163.889 71.3383 159.568C71.3383 155.248 74.8547 151.745 79.1923 151.745C104.964 151.745 125.664 131.26 125.664 106.226C125.664 81.1925 104.964 60.7077 79.1923 60.7077C53.4205 60.7077 32.7208 81.1925 32.7208 106.226C32.7208 110.547 29.2045 114.05 24.8669 114.05C20.5292 114.05 17.0129 110.547 17.0129 106.226Z" fill="#1D2330"/>
<path fill-rule="evenodd" clip-rule="evenodd" d="M577.029 436.381C578.153 432.208 582.461 429.734 586.651 430.854C621.247 440.106 641.417 475.971 632.08 510.747C622.741 545.529 587.29 566.535 552.687 557.285C518.09 548.032 497.919 512.166 507.257 477.389C508.378 473.215 512.683 470.737 516.873 471.853C521.064 472.969 523.552 477.258 522.432 481.432C515.262 508.134 530.801 535.231 556.758 542.174C582.71 549.111 609.737 533.403 616.905 506.705C624.075 480.002 608.535 452.907 582.578 445.965C578.388 444.845 575.904 440.554 577.029 436.381Z" fill="#1D2330"/>
<path fill-rule="evenodd" clip-rule="evenodd" d="M154.736 350.702C165.801 342.116 179.477 336.997 194.302 336.997H234.822C239.16 336.997 242.676 340.5 242.676 344.82C242.676 349.141 239.16 352.644 234.822 352.644H194.302C183.195 352.644 172.875 356.461 164.389 363.045C160.967 365.701 156.032 365.09 153.367 361.682C150.701 358.273 151.314 353.358 154.736 350.702ZM147.302 369.338C151.084 371.453 152.428 376.222 150.304 379.99C145.394 388.7 142.532 399.008 142.532 410.106C142.532 442.31 166.303 467.174 194.158 467.174C198.495 467.174 202.012 470.677 202.012 474.998C202.012 479.318 198.495 482.821 194.158 482.821C156.313 482.821 126.824 449.58 126.824 410.106C126.824 396.315 130.384 383.37 136.608 372.329C138.732 368.562 143.519 367.223 147.302 369.338Z" fill="#1D2330"/>
<path fill-rule="evenodd" clip-rule="evenodd" d="M104.784 189.417C104.784 172.865 118.254 159.448 134.871 159.448C139.209 159.448 142.725 162.95 142.725 167.271C142.725 171.592 139.209 175.094 134.871 175.094C126.93 175.094 120.492 181.506 120.492 189.417C120.492 197.327 126.93 203.739 134.871 203.739C142.812 203.739 149.25 197.327 149.25 189.417V167.271C149.25 162.95 152.766 159.448 157.104 159.448C161.441 159.448 164.958 162.95 164.958 167.271V189.417C164.958 205.968 151.488 219.385 134.871 219.385C118.254 219.385 104.784 205.968 104.784 189.417Z" fill="#1D2330"/>
<path fill-rule="evenodd" clip-rule="evenodd" d="M133.783 8.20828C133.783 3.88768 137.3 0.385131 141.637 0.385131H171.023C191.639 0.385131 208.263 17.1272 208.263 37.6715C208.263 58.2156 191.639 74.9578 171.023 74.9578C150.408 74.9578 133.783 58.2156 133.783 37.6715C133.783 33.3509 137.3 29.8483 141.637 29.8483C145.975 29.8483 149.491 33.3509 149.491 37.6715C149.491 49.6713 159.18 59.3115 171.023 59.3115C182.867 59.3115 192.555 49.6713 192.555 37.6715C192.555 25.6716 182.867 16.0314 171.023 16.0314H141.637C137.3 16.0314 133.783 12.5289 133.783 8.20828Z" fill="#1D2330"/>
<path fill-rule="evenodd" clip-rule="evenodd" d="M35.4999 298.724C25.5572 298.724 17.6412 306.645 17.6412 316.24C17.6412 325.835 25.5572 333.755 35.4999 333.755C39.8376 333.755 43.3539 337.258 43.3539 341.579C43.3539 345.899 39.8376 349.402 35.4999 349.402C17.0411 349.402 1.93317 334.634 1.93317 316.24C1.93317 297.846 17.0411 283.078 35.4999 283.078C53.9588 283.078 69.0667 297.846 69.0667 316.24V393.733C69.0667 398.054 65.5503 401.556 61.2127 401.556C56.8751 401.556 53.3587 398.054 53.3587 393.733V316.24C53.3587 306.645 45.4427 298.724 35.4999 298.724Z" fill="#1D2330"/>
<path fill-rule="evenodd" clip-rule="evenodd" d="M510.775 319.401C510.775 315.081 514.291 311.578 518.629 311.578H596.347C613.621 311.578 627.401 325.722 627.401 342.895C627.401 360.068 613.621 374.211 596.347 374.211C579.076 374.211 565.289 360.07 565.289 342.895C565.289 338.574 568.806 335.072 573.143 335.072C577.481 335.072 580.997 338.574 580.997 342.895C580.997 351.67 587.991 358.565 596.347 358.565C604.702 358.565 611.693 351.672 611.693 342.895C611.693 334.118 604.702 327.224 596.347 327.224H518.629C514.291 327.224 510.775 323.722 510.775 319.401Z" fill="#1D2330"/>
<path fill-rule="evenodd" clip-rule="evenodd" d="M406.111 0C410.449 0 413.965 3.50254 413.965 7.82315V85.9662C413.965 103.813 399.265 118.093 381.365 118.093C363.465 118.093 348.765 103.813 348.765 85.9662C348.765 68.1192 363.465 53.839 381.365 53.839C385.703 53.839 389.219 57.3415 389.219 61.6622C389.219 65.9828 385.703 69.4853 381.365 69.4853C371.931 69.4853 364.473 76.9675 364.473 85.9662C364.473 94.965 371.931 102.447 381.365 102.447C390.799 102.447 398.257 94.965 398.257 85.9662V7.82315C398.257 3.50254 401.773 0 406.111 0Z" fill="#1D2330"/>
<path fill-rule="evenodd" clip-rule="evenodd" d="M383.863 514.787C375.972 514.787 369.469 521.227 369.469 529.302C369.469 533.623 365.952 537.126 361.615 537.126C357.277 537.126 353.761 533.623 353.761 529.302C353.761 512.703 367.18 499.141 383.863 499.141C400.548 499.141 413.966 512.703 413.966 529.302C413.966 545.901 400.548 559.464 383.863 559.464H348.5C344.162 559.464 340.646 555.961 340.646 551.641C340.646 547.32 344.162 543.817 348.5 543.817H383.863C391.755 543.817 398.258 537.378 398.258 529.302C398.258 521.227 391.755 514.787 383.863 514.787Z" fill="#1D2330"/>
<path fill-rule="evenodd" clip-rule="evenodd" d="M406.885 156.367C411.223 156.367 414.739 159.869 414.739 164.19V246.529C414.739 254.34 421.139 260.74 429.118 260.74C437.096 260.74 443.497 254.34 443.497 246.529C443.497 238.717 437.096 232.317 429.118 232.317C424.78 232.317 421.264 228.815 421.264 224.494C421.264 220.174 424.78 216.671 429.118 216.671C445.697 216.671 459.205 230.001 459.205 246.529C459.205 263.056 445.697 276.386 429.118 276.386C412.538 276.386 399.031 263.056 399.031 246.529V164.19C399.031 159.869 402.547 156.367 406.885 156.367Z" fill="#1D2330"/>
<path fill-rule="evenodd" clip-rule="evenodd" d="M54.2528 151.745C58.5905 151.745 62.1068 155.248 62.1068 159.568V248.672C62.1068 265.152 48.5253 278.312 32.02 278.312C15.5148 278.312 1.93317 265.152 1.93317 248.672C1.93317 232.192 15.5148 219.032 32.02 219.032C36.3577 219.032 39.874 222.535 39.874 226.855C39.874 231.176 36.3577 234.678 32.02 234.678C23.9675 234.678 17.6412 241.053 17.6412 248.672C17.6412 256.29 23.9675 262.665 32.02 262.665C40.0725 262.665 46.3989 256.29 46.3989 248.672V159.568C46.3989 155.248 49.9152 151.745 54.2528 151.745Z" fill="#1D2330"/>
<path fill-rule="evenodd" clip-rule="evenodd" d="M187.916 159.568C187.916 133.458 208.859 112.076 234.958 112.076C261.058 112.076 282.001 133.458 282.001 159.568C282.001 163.889 278.485 167.391 274.147 167.391C269.809 167.391 266.293 163.889 266.293 159.568C266.293 141.861 252.145 127.722 234.958 127.722C217.772 127.722 203.624 141.861 203.624 159.568C203.624 177.276 217.772 191.414 234.958 191.414H337.673C342.011 191.414 345.527 194.917 345.527 199.238C345.527 203.558 342.011 207.061 337.673 207.061H234.958C208.859 207.061 187.916 185.678 187.916 159.568Z" fill="#1D2330"/>
<path fill-rule="evenodd" clip-rule="evenodd" d="M476.749 208.481C476.749 204.16 480.266 200.658 484.603 200.658H587.316C613.42 200.658 634.361 222.041 634.361 248.15C634.361 274.26 613.42 295.643 587.316 295.643C582.979 295.643 579.462 292.14 579.462 287.82C579.462 283.499 582.979 279.997 587.316 279.997C604.507 279.997 618.653 265.858 618.653 248.15C618.653 230.443 604.507 216.304 587.316 216.304H484.603C480.266 216.304 476.749 212.802 476.749 208.481Z" fill="#1D2330"/>
<path fill-rule="evenodd" clip-rule="evenodd" d="M472.795 46.0723C456.827 46.0723 443.738 59.1295 443.738 75.4152C443.738 91.7009 456.827 104.758 472.795 104.758H510.717C526.687 104.758 539.774 91.7011 539.774 75.4152C539.774 59.1292 526.687 46.0723 510.717 46.0723H472.795ZM428.03 75.4152C428.03 50.6483 447.992 30.426 472.795 30.426H510.717C535.522 30.426 555.482 50.6485 555.482 75.4152C555.482 100.182 535.522 120.404 510.717 120.404H472.795C447.992 120.404 428.03 100.182 428.03 75.4152Z" fill="#1D2330"/>
<path fill-rule="evenodd" clip-rule="evenodd" d="M110.898 240.183C102.517 240.183 95.7459 246.935 95.7459 255.237V320.403C95.7459 328.704 102.517 335.457 110.898 335.457C119.279 335.457 126.05 328.704 126.05 320.403V255.237C126.05 246.935 119.279 240.183 110.898 240.183ZM110.898 351.103C93.867 351.103 80.0379 337.37 80.0379 320.403V255.237C80.0379 238.269 93.867 224.536 110.898 224.536C127.929 224.536 141.758 238.269 141.758 255.237V320.403C141.758 337.37 127.929 351.103 110.898 351.103Z" fill="#1D2330"/>
<path fill-rule="evenodd" clip-rule="evenodd" d="M345.986 269.839C340.341 269.839 335.861 274.35 335.861 279.796V314.202C335.861 318.523 332.344 322.025 328.007 322.025C323.669 322.025 320.153 318.523 320.153 314.202V279.796C320.153 265.602 331.772 254.192 345.986 254.192C360.2 254.192 371.82 265.602 371.82 279.796V348.608C371.82 362.802 360.2 374.211 345.986 374.211C331.772 374.211 320.153 362.802 320.153 348.608V340.295C320.153 335.974 323.669 332.472 328.007 332.472C332.344 332.472 335.861 335.974 335.861 340.295V348.608C335.861 354.054 340.341 358.565 345.986 358.565C351.632 358.565 356.112 354.054 356.112 348.608V279.796C356.112 274.35 351.632 269.839 345.986 269.839Z" fill="#1D2330"/>
<path fill-rule="evenodd" clip-rule="evenodd" d="M330.133 16.0314C317.26 16.0314 306.861 26.3921 306.861 39.1277V133.27C306.861 146.006 317.26 156.367 330.133 156.367C343.006 156.367 353.405 146.006 353.405 133.27V130.271C353.405 125.95 356.922 122.448 361.259 122.448C365.597 122.448 369.113 125.95 369.113 130.271V133.27C369.113 154.687 351.641 172.013 330.133 172.013C308.625 172.013 291.153 154.687 291.153 133.27V39.1277C291.153 17.7107 308.625 0.385131 330.133 0.385131C351.641 0.385131 369.113 17.7107 369.113 39.1277V40.0507C369.113 44.3713 365.597 47.8738 361.259 47.8738C356.922 47.8738 353.405 44.3713 353.405 40.0507V39.1277C353.405 26.3921 343.006 16.0314 330.133 16.0314Z" fill="#1D2330"/>
<path fill-rule="evenodd" clip-rule="evenodd" d="M1.93317 398.355C1.93317 380.854 16.1648 366.653 33.7365 366.653H35.5966C39.9342 366.653 43.4506 370.156 43.4506 374.476C43.4506 378.797 39.9342 382.299 35.5966 382.299H33.7365C24.8545 382.299 17.6412 389.48 17.6412 398.355C17.6412 407.23 24.8545 414.411 33.7365 414.411H89.0756C97.9577 414.411 105.171 407.23 105.171 398.355C105.171 389.48 97.9577 382.299 89.0756 382.299H87.2154C82.8778 382.299 79.3615 378.797 79.3615 374.476C79.3615 370.156 82.8778 366.653 87.2154 366.653H89.0756C106.647 366.653 120.879 380.854 120.879 398.355C120.879 415.856 106.647 430.057 89.0756 430.057H33.7365C16.1647 430.057 1.93317 415.856 1.93317 398.355Z" fill="#1D2330"/>
<path fill-rule="evenodd" clip-rule="evenodd" d="M298.234 254.192C302.572 254.192 306.088 257.695 306.088 262.015V351.228C306.088 373.507 324.404 391.687 347.147 391.687C369.89 391.687 388.205 373.507 388.205 351.228V330.15C388.205 325.83 391.721 322.327 396.059 322.327C400.397 322.327 403.913 325.83 403.913 330.15V351.228C403.913 382.281 378.431 407.334 347.147 407.334C315.862 407.334 290.38 382.281 290.38 351.228V262.015C290.38 257.695 293.897 254.192 298.234 254.192Z" fill="#1D2330"/>
<path fill-rule="evenodd" clip-rule="evenodd" d="M192.169 412.99C192.169 408.67 195.686 405.167 200.023 405.167H280.371C315.33 405.167 343.594 433.541 343.594 468.45C343.594 503.357 315.33 531.734 280.371 531.734H256.2C251.862 531.734 248.346 528.231 248.346 523.911C248.346 519.59 251.862 516.087 256.2 516.087H280.371C306.572 516.087 327.886 494.799 327.886 468.45C327.886 442.1 306.572 420.813 280.371 420.813H200.023C195.686 420.813 192.169 417.311 192.169 412.99Z" fill="#1D2330"/>
<path fill-rule="evenodd" clip-rule="evenodd" d="M215.417 239.413C207.005 239.413 200.143 246.233 200.143 254.698C200.143 263.162 207.005 269.983 215.417 269.983H234.435C238.773 269.983 242.289 273.486 242.289 277.806C242.289 282.127 238.773 285.629 234.435 285.629H215.417C198.283 285.629 184.435 271.758 184.435 254.698C184.435 237.638 198.283 223.766 215.417 223.766H253.454C270.587 223.766 284.435 237.638 284.435 254.698V256.751C284.435 272.677 271.507 285.629 255.508 285.629C251.17 285.629 247.654 282.127 247.654 277.806C247.654 273.486 251.17 269.983 255.508 269.983C262.786 269.983 268.727 264.082 268.727 256.751V254.698C268.727 246.233 261.866 239.413 253.454 239.413H215.417Z" fill="#1D2330"/>
<path fill-rule="evenodd" clip-rule="evenodd" d="M373.125 164.768C373.125 146.31 388.9 132.103 407.395 132.103H450.841C469.335 132.103 485.111 146.31 485.111 164.768C485.111 183.226 469.335 197.432 450.841 197.432H429.118C424.78 197.432 421.264 193.93 421.264 189.609C421.264 185.289 424.78 181.786 429.118 181.786H450.841C461.523 181.786 469.403 173.748 469.403 164.768C469.403 155.787 461.523 147.749 450.841 147.749H407.395C396.712 147.749 388.833 155.787 388.833 164.768C388.833 169.088 385.316 172.591 380.979 172.591C376.641 172.591 373.125 169.088 373.125 164.768Z" fill="#1D2330"/>
<path fill-rule="evenodd" clip-rule="evenodd" d="M149.25 145.703C149.25 108.445 179.448 78.1833 216.773 78.1833H268.848C273.186 78.1833 276.702 81.6859 276.702 86.0065C276.702 90.3271 273.186 93.8297 268.848 93.8297H216.773C188.189 93.8297 164.958 117.022 164.958 145.703C164.958 150.024 161.442 153.526 157.104 153.526C152.766 153.526 149.25 150.024 149.25 145.703Z" fill="#1D2330"/>
<path fill-rule="evenodd" clip-rule="evenodd" d="M546.082 343.545C550.42 343.545 553.936 347.047 553.936 351.368V494.609C553.936 502.375 560.32 508.77 568.315 508.77C576.31 508.77 582.694 502.375 582.694 494.609C582.694 486.844 576.31 480.449 568.315 480.449C563.977 480.449 560.461 476.946 560.461 472.625C560.461 468.305 563.977 464.802 568.315 464.802C584.878 464.802 598.402 478.095 598.402 494.609C598.402 511.123 584.878 524.416 568.315 524.416C551.752 524.416 538.228 511.123 538.228 494.609V351.368C538.228 347.047 541.745 343.545 546.082 343.545Z" fill="#1D2330"/>
<path fill-rule="evenodd" clip-rule="evenodd" d="M442.316 453.935C424.405 453.935 409.712 468.615 409.712 486.937C409.712 491.258 406.196 494.76 401.858 494.76C397.521 494.76 394.005 491.258 394.005 486.937C394.005 460.166 415.539 438.289 442.316 438.289H513.603C517.94 438.289 521.457 441.792 521.457 446.112C521.457 450.433 517.94 453.935 513.603 453.935H442.316Z" fill="#1D2330"/>
<path fill-rule="evenodd" clip-rule="evenodd" d="M380.979 177.549C385.317 177.549 388.833 181.052 388.833 185.373C388.833 215.195 364.631 239.412 334.725 239.412H296.688C292.35 239.412 288.834 235.91 288.834 231.589C288.834 227.269 292.35 223.766 296.688 223.766H334.725C355.91 223.766 373.125 206.6 373.125 185.373C373.125 181.052 376.642 177.549 380.979 177.549Z" fill="#1D2330"/>
<path fill-rule="evenodd" clip-rule="evenodd" d="M518.629 344.315C522.967 344.315 526.483 347.818 526.483 352.138V372.841C526.483 398.062 505.95 418.503 480.625 418.503H450.964C446.626 418.503 443.11 415 443.11 410.679C443.11 406.359 446.626 402.856 450.964 402.856H480.625C497.281 402.856 510.775 389.415 510.775 372.841V352.138C510.775 347.818 514.291 344.315 518.629 344.315Z" fill="#1D2330"/>
<path fill-rule="evenodd" clip-rule="evenodd" d="M507.682 291.671C507.682 263.808 530.171 241.098 558.066 241.098H590.548C594.885 241.098 598.402 244.6 598.402 248.921C598.402 253.241 594.885 256.744 590.548 256.744H558.066C538.981 256.744 523.39 272.314 523.39 291.671C523.39 295.992 519.874 299.494 515.536 299.494C511.199 299.494 507.682 295.992 507.682 291.671Z" fill="#1D2330"/>
<path fill-rule="evenodd" clip-rule="evenodd" d="M136.954 473.401C137.839 477.631 135.114 481.775 130.868 482.656C112.534 486.463 99.9997 500.715 99.9997 516.547V551.64C99.9997 555.961 96.4834 559.464 92.1457 559.464C87.8081 559.464 84.2917 555.961 84.2917 551.64V516.547C84.2917 491.968 103.444 472.367 127.662 467.339C131.909 466.457 136.069 469.172 136.954 473.401Z" fill="#1D2330"/>
<path fill-rule="evenodd" clip-rule="evenodd" d="M25.0602 125.556C29.3978 125.556 32.9142 129.058 32.9142 133.379V204.244C32.9142 208.565 29.3978 212.068 25.0602 212.068C20.7225 212.068 17.2062 208.565 17.2062 204.244V133.379C17.2062 129.058 20.7225 125.556 25.0602 125.556Z" fill="#1D2330"/>
<path fill-rule="evenodd" clip-rule="evenodd" d="M168.583 551.448C168.583 547.127 172.099 543.625 176.437 543.625H322.98C327.318 543.625 330.834 547.127 330.834 551.448C330.834 555.769 327.318 559.271 322.98 559.271H176.437C172.099 559.271 168.583 555.769 168.583 551.448Z" fill="#1D2330"/>
<path fill-rule="evenodd" clip-rule="evenodd" d="M428.731 288.47C433.069 288.47 436.585 291.972 436.585 296.293V354.834C436.585 359.155 433.069 362.657 428.731 362.657C424.394 362.657 420.877 359.155 420.877 354.834V296.293C420.877 291.972 424.394 288.47 428.731 288.47Z" fill="#1D2330"/>
<path fill-rule="evenodd" clip-rule="evenodd" d="M369.186 447.532C373.524 447.532 377.04 451.035 377.04 455.356V479.234C377.04 483.555 373.524 487.057 369.186 487.057C364.849 487.057 361.332 483.555 361.332 479.234V455.356C361.332 451.035 364.849 447.532 369.186 447.532Z" fill="#1D2330"/>
<path fill-rule="evenodd" clip-rule="evenodd" d="M484.603 226.077C488.941 226.077 492.457 229.58 492.457 233.9V288.717C492.457 301.724 481.806 312.152 468.802 312.152C464.356 312.152 460.856 315.699 460.856 319.947V323.186C460.856 327.434 464.356 330.981 468.802 330.981C481.81 330.981 492.457 341.419 492.457 354.422V358.009C492.457 372.992 480.185 385.036 465.174 385.036H440.361C436.024 385.036 432.507 381.533 432.507 377.213C432.507 372.892 436.024 369.39 440.361 369.39H465.174C471.624 369.39 476.749 364.237 476.749 358.009V354.422C476.749 350.174 473.249 346.627 468.802 346.627C455.795 346.627 445.148 336.189 445.148 323.186V319.947C445.148 306.944 455.795 296.506 468.802 296.506C473.252 296.506 476.749 292.962 476.749 288.717V233.9C476.749 229.58 480.265 226.077 484.603 226.077ZM425.816 382.035C430.154 382.035 433.67 385.537 433.67 389.858C433.67 415.472 412.802 436.219 387.079 436.219H376.726C372.388 436.219 368.872 432.716 368.872 428.396C368.872 424.075 372.388 420.573 376.726 420.573H387.079C404.144 420.573 417.962 406.812 417.962 389.858C417.962 385.537 421.478 382.035 425.816 382.035Z" fill="#1D2330"/>
<path fill-rule="evenodd" clip-rule="evenodd" d="M492.602 159.338C492.602 144.062 505.066 131.718 520.391 131.718C535.713 131.718 548.176 144.063 548.176 159.338V165.809C548.176 172.483 553.632 177.935 560.41 177.935C567.183 177.935 572.64 172.484 572.64 165.809V157.997C572.64 153.677 576.157 150.174 580.494 150.174C584.832 150.174 588.348 153.677 588.348 157.997V165.809C588.348 181.168 575.815 193.581 560.41 193.581C545.002 193.581 532.468 181.17 532.468 165.809V159.338C532.468 152.746 527.08 147.364 520.391 147.364C513.697 147.364 508.31 152.747 508.31 159.338V167.302C508.31 171.622 504.794 175.125 500.456 175.125C496.119 175.125 492.602 171.622 492.602 167.302V159.338Z" fill="#1D2330"/>
<path fill-rule="evenodd" clip-rule="evenodd" d="M457.151 482.821C445.897 482.821 436.779 491.905 436.779 503.1V523.538C436.779 534.733 445.897 543.817 457.151 543.817C468.404 543.817 477.523 534.733 477.523 523.538V503.1C477.523 491.905 468.404 482.821 457.151 482.821ZM457.151 559.464C437.227 559.464 421.071 543.381 421.071 523.538V503.1C421.071 483.257 437.227 467.174 457.151 467.174C477.072 467.174 493.231 483.257 493.231 503.1V523.538C493.231 543.381 477.072 559.464 457.151 559.464Z" fill="#1D2330"/>
<path fill-rule="evenodd" clip-rule="evenodd" d="M1224.86 384.755C1229.2 384.755 1232.72 388.257 1232.72 392.578C1232.72 400.658 1239.22 407.093 1247.09 407.093C1254.97 407.093 1261.47 400.658 1261.47 392.578C1261.47 388.257 1264.99 384.755 1269.33 384.755C1273.66 384.755 1277.18 388.257 1277.18 392.578C1277.18 409.172 1263.77 422.739 1247.09 422.739C1230.41 422.739 1217.01 409.172 1217.01 392.578C1217.01 388.257 1220.52 384.755 1224.86 384.755Z" fill="#1D2330"/>
<path fill-rule="evenodd" clip-rule="evenodd" d="M1269.33 19.4977C1258.34 19.4977 1249.34 28.4452 1249.34 39.5972C1249.34 50.7492 1258.34 59.6967 1269.33 59.6967C1273.66 59.6967 1277.18 63.1992 1277.18 67.5198C1277.18 71.8404 1273.66 75.343 1269.33 75.343C1249.56 75.343 1233.63 59.2876 1233.63 39.5972C1233.63 19.9067 1249.56 3.85142 1269.33 3.85142C1273.66 3.85142 1277.18 7.35396 1277.18 11.6746C1277.18 15.9952 1273.66 19.4977 1269.33 19.4977Z" fill="#1D2330"/>
<path fill-rule="evenodd" clip-rule="evenodd" d="M914.374 0.385131C918.712 0.385131 922.228 3.88768 922.228 8.20828V34.3616C922.228 51.4529 908.337 65.3293 891.175 65.3293C874.013 65.3293 860.121 51.4529 860.121 34.3616C860.121 30.041 863.638 26.5385 867.975 26.5385C872.313 26.5385 875.829 30.041 875.829 34.3616C875.829 42.8348 882.711 49.683 891.175 49.683C899.638 49.683 906.52 42.8348 906.52 34.3616V8.20828C906.52 3.88768 910.037 0.385131 914.374 0.385131Z" fill="#1D2330"/>
<path fill-rule="evenodd" clip-rule="evenodd" d="M703.737 455.861C679.155 455.861 659.301 475.589 659.301 499.839C659.301 524.089 679.155 543.817 703.737 543.817C708.074 543.817 711.591 547.32 711.591 551.641C711.591 555.961 708.074 559.464 703.737 559.464C670.561 559.464 643.593 532.811 643.593 499.839C643.593 466.867 670.561 440.215 703.737 440.215H751.591C755.929 440.215 759.445 443.717 759.445 448.038C759.445 452.358 755.929 455.861 751.591 455.861H703.737Z" fill="#1D2330"/>
<path fill-rule="evenodd" clip-rule="evenodd" d="M700.545 490.524C695.027 490.524 691.007 494.766 691.007 499.454C691.007 504.142 695.027 508.384 700.545 508.384C704.883 508.384 708.399 511.887 708.399 516.208C708.399 520.528 704.883 524.031 700.545 524.031C686.852 524.031 675.299 513.273 675.299 499.454C675.299 485.635 686.852 474.877 700.545 474.877H719.112C723.45 474.877 726.966 478.38 726.966 482.7C726.966 487.021 723.45 490.524 719.112 490.524H700.545Z" fill="#1D2330"/>
<path fill-rule="evenodd" clip-rule="evenodd" d="M642.82 34.3993C642.82 15.4412 658.565 0.386615 677.596 0.386615L753.525 0.386796C757.862 0.386806 761.379 3.88936 761.379 8.20997C761.379 12.5306 757.862 16.0331 753.525 16.0331L677.596 16.0329C666.889 16.0329 658.528 24.4292 658.528 34.3993C658.528 38.7199 655.011 42.2224 650.674 42.2224C646.336 42.2224 642.82 38.7199 642.82 34.3993Z" fill="#1D2330"/>
<path fill-rule="evenodd" clip-rule="evenodd" d="M1222.66 43.256C1222.66 19.9831 1203.67 1.15543 1180.3 1.15543L1082.96 1.15567C1078.62 1.15568 1075.1 4.65823 1075.1 8.97884C1075.1 13.2994 1078.62 16.802 1082.96 16.802L1180.3 16.8017C1195.04 16.8017 1206.95 28.6671 1206.95 43.256C1206.95 47.5766 1210.47 51.0792 1214.81 51.0792C1219.15 51.0792 1222.66 47.5766 1222.66 43.256Z" fill="#1D2330"/>
<path fill-rule="evenodd" clip-rule="evenodd" d="M1215.07 120.931C1215.07 103.876 1229.02 90.1228 1246.13 90.1228C1263.24 90.1228 1277.18 103.876 1277.18 120.931V185.758C1277.18 190.078 1273.66 193.581 1269.33 193.581C1264.99 193.581 1261.47 190.078 1261.47 185.758V120.931C1261.47 112.597 1254.64 105.769 1246.13 105.769C1237.61 105.769 1230.78 112.597 1230.78 120.931V130.966C1230.78 135.286 1227.27 138.789 1222.93 138.789C1218.59 138.789 1215.07 135.286 1215.07 130.966V120.931Z" fill="#1D2330"/>
<path fill-rule="evenodd" clip-rule="evenodd" d="M801.378 226.462C805.715 226.462 809.232 229.965 809.232 234.285V259.044C809.232 284.89 830.24 305.827 856.136 305.827H877.946C900.489 305.827 918.748 324.048 918.748 346.506C918.748 350.827 915.232 354.329 910.894 354.329C906.556 354.329 903.04 350.827 903.04 346.506C903.04 332.672 891.796 321.473 877.946 321.473H856.136C821.548 321.473 793.524 293.514 793.524 259.044V234.285C793.524 229.965 797.04 226.462 801.378 226.462ZM801.995 411.063C801.995 389.377 819.728 371.867 841.514 371.867H910.895C915.232 371.867 918.749 375.369 918.749 379.69C918.749 384.01 915.232 387.513 910.895 387.513H841.514C828.324 387.513 817.703 398.096 817.703 411.063C817.703 424.03 828.324 434.614 841.514 434.614H870.15C874.487 434.614 878.004 438.116 878.004 442.437C878.004 446.757 874.487 450.26 870.15 450.26H841.514C819.728 450.26 801.995 432.75 801.995 411.063ZM870.355 467.194C874.693 467.194 878.209 470.696 878.209 475.017C878.209 497.31 860.085 515.396 837.709 515.396H788.379C780.524 515.396 774.138 521.75 774.138 529.609C774.138 537.462 780.523 543.817 788.379 543.817H792.515C796.853 543.817 800.369 547.32 800.369 551.641C800.369 555.961 796.853 559.464 792.515 559.464H788.379C771.83 559.464 758.43 546.086 758.43 529.609C758.43 513.128 771.829 499.75 788.379 499.75H837.709C851.393 499.75 862.501 488.686 862.501 475.017C862.501 470.696 866.017 467.194 870.355 467.194Z" fill="#1D2330"/>
<path fill-rule="evenodd" clip-rule="evenodd" d="M854.709 159.183C854.709 146.354 865.15 135.954 878.029 135.954C890.909 135.954 901.349 146.354 901.349 159.183C901.349 172.012 890.909 182.412 878.029 182.412C865.15 182.412 854.709 172.012 854.709 159.183ZM878.029 151.601C873.825 151.601 870.417 154.995 870.417 159.183C870.417 163.371 873.825 166.765 878.029 166.765C882.233 166.765 885.641 163.371 885.641 159.183C885.641 154.995 882.233 151.601 878.029 151.601Z" fill="#1D2330"/>
<path fill-rule="evenodd" clip-rule="evenodd" d="M890.28 468.258C890.28 451.643 903.902 438.289 920.561 438.289C937.22 438.289 950.841 451.643 950.841 468.258C950.841 484.873 937.22 498.226 920.561 498.226C903.902 498.226 890.28 484.873 890.28 468.258ZM920.561 453.935C912.448 453.935 905.988 460.411 905.988 468.258C905.988 476.104 912.448 482.58 920.561 482.58C928.673 482.58 935.133 476.104 935.133 468.258C935.133 460.411 928.673 453.935 920.561 453.935Z" fill="#1D2330"/>
<path fill-rule="evenodd" clip-rule="evenodd" d="M689.605 106.804C689.605 89.0828 704.027 74.717 721.818 74.717C739.609 74.717 754.032 89.0828 754.032 106.804C754.032 124.525 739.609 138.891 721.818 138.891C704.027 138.891 689.605 124.525 689.605 106.804ZM721.818 90.3633C712.703 90.3633 705.313 97.7241 705.313 106.804C705.313 115.884 712.703 123.245 721.818 123.245C730.934 123.245 738.324 115.884 738.324 106.804C738.324 97.7241 730.934 90.3633 721.818 90.3633Z" fill="#1D2330"/>
<path fill-rule="evenodd" clip-rule="evenodd" d="M659.833 106.226C659.833 72.3405 687.778 45.0614 722.012 45.0614C756.246 45.0614 784.191 72.3405 784.191 106.226C784.191 140.112 756.246 167.391 722.012 167.391C717.674 167.391 714.158 163.889 714.158 159.568C714.158 155.248 717.674 151.745 722.012 151.745C747.784 151.745 768.483 131.26 768.483 106.226C768.483 81.1925 747.784 60.7077 722.012 60.7077C696.24 60.7077 675.54 81.1925 675.54 106.226C675.54 110.547 672.024 114.05 667.687 114.05C663.349 114.05 659.833 110.547 659.833 106.226Z" fill="#1D2330"/>
<path fill-rule="evenodd" clip-rule="evenodd" d="M1219.85 436.381C1220.97 432.208 1225.28 429.734 1229.47 430.854C1264.07 440.106 1284.24 475.971 1274.9 510.747C1265.56 545.529 1230.11 566.535 1195.51 557.285C1160.91 548.032 1140.74 512.166 1150.08 477.389C1151.2 473.215 1155.5 470.737 1159.69 471.853C1163.88 472.969 1166.37 477.258 1165.25 481.432C1158.08 508.134 1173.62 535.231 1199.58 542.174C1225.53 549.111 1252.56 533.403 1259.72 506.705C1266.89 480.002 1251.35 452.907 1225.4 445.965C1221.21 444.845 1218.72 440.554 1219.85 436.381Z" fill="#1D2330"/>
<path fill-rule="evenodd" clip-rule="evenodd" d="M797.555 350.702C808.621 342.116 822.297 336.997 837.121 336.997H877.642C881.98 336.997 885.496 340.5 885.496 344.82C885.496 349.141 881.98 352.644 877.642 352.644H837.121C826.015 352.644 815.694 356.461 807.209 363.045C803.787 365.701 798.852 365.09 796.186 361.682C793.521 358.273 794.134 353.358 797.555 350.702ZM790.121 369.338C793.904 371.453 795.248 376.222 793.124 379.99C788.214 388.7 785.352 399.008 785.352 410.106C785.352 442.31 809.123 467.174 836.977 467.174C841.315 467.174 844.831 470.677 844.831 474.998C844.831 479.318 841.315 482.821 836.977 482.821C799.133 482.821 769.644 449.58 769.644 410.106C769.644 396.315 773.203 383.37 779.428 372.329C781.552 368.562 786.339 367.223 790.121 369.338Z" fill="#1D2330"/>
<path fill-rule="evenodd" clip-rule="evenodd" d="M747.604 189.417C747.604 172.865 761.074 159.448 777.691 159.448C782.028 159.448 785.545 162.95 785.545 167.271C785.545 171.592 782.028 175.094 777.691 175.094C769.749 175.094 763.312 181.506 763.312 189.417C763.312 197.327 769.749 203.739 777.691 203.739C785.632 203.739 792.069 197.327 792.069 189.417V167.271C792.069 162.95 795.586 159.448 799.923 159.448C804.261 159.448 807.777 162.95 807.777 167.271V189.417C807.777 205.968 794.307 219.385 777.691 219.385C761.074 219.385 747.604 205.968 747.604 189.417Z" fill="#1D2330"/>
<path fill-rule="evenodd" clip-rule="evenodd" d="M776.603 8.20828C776.603 3.88768 780.119 0.385131 784.457 0.385131H813.843C834.459 0.385131 851.083 17.1272 851.083 37.6715C851.083 58.2156 834.459 74.9578 813.843 74.9578C793.228 74.9578 776.603 58.2156 776.603 37.6715C776.603 33.3509 780.119 29.8483 784.457 29.8483C788.795 29.8483 792.311 33.3509 792.311 37.6715C792.311 49.6713 802 59.3115 813.843 59.3115C825.686 59.3115 835.375 49.6713 835.375 37.6715C835.375 25.6716 825.686 16.0314 813.843 16.0314H784.457C780.119 16.0314 776.603 12.5289 776.603 8.20828Z" fill="#1D2330"/>
<path fill-rule="evenodd" clip-rule="evenodd" d="M678.32 298.724C668.377 298.724 660.461 306.645 660.461 316.24C660.461 325.835 668.377 333.755 678.32 333.755C682.657 333.755 686.174 337.258 686.174 341.579C686.174 345.899 682.657 349.402 678.32 349.402C659.861 349.402 644.753 334.634 644.753 316.24C644.753 297.846 659.861 283.078 678.32 283.078C696.779 283.078 711.886 297.846 711.886 316.24V393.733C711.886 398.054 708.37 401.556 704.032 401.556C699.695 401.556 696.178 398.054 696.178 393.733V316.24C696.178 306.645 688.262 298.724 678.32 298.724Z" fill="#1D2330"/>
<path fill-rule="evenodd" clip-rule="evenodd" d="M1153.59 319.401C1153.59 315.081 1157.11 311.578 1161.45 311.578H1239.17C1256.44 311.578 1270.22 325.722 1270.22 342.895C1270.22 360.068 1256.44 374.211 1239.17 374.211C1221.9 374.211 1208.11 360.07 1208.11 342.895C1208.11 338.574 1211.63 335.072 1215.96 335.072C1220.3 335.072 1223.82 338.574 1223.82 342.895C1223.82 351.67 1230.81 358.565 1239.17 358.565C1247.52 358.565 1254.51 351.672 1254.51 342.895C1254.51 334.118 1247.52 327.224 1239.17 327.224H1161.45C1157.11 327.224 1153.59 323.722 1153.59 319.401Z" fill="#1D2330"/>
<path fill-rule="evenodd" clip-rule="evenodd" d="M1048.93 0C1053.27 0 1056.78 3.50254 1056.78 7.82315V85.9662C1056.78 103.813 1042.08 118.093 1024.18 118.093C1006.28 118.093 991.585 103.813 991.585 85.9662C991.585 68.1192 1006.28 53.839 1024.18 53.839C1028.52 53.839 1032.04 57.3415 1032.04 61.6622C1032.04 65.9828 1028.52 69.4853 1024.18 69.4853C1014.75 69.4853 1007.29 76.9675 1007.29 85.9662C1007.29 94.965 1014.75 102.447 1024.18 102.447C1033.62 102.447 1041.08 94.965 1041.08 85.9662V7.82315C1041.08 3.50254 1044.59 0 1048.93 0Z" fill="#1D2330"/>
<path fill-rule="evenodd" clip-rule="evenodd" d="M1026.68 514.787C1018.79 514.787 1012.29 521.227 1012.29 529.302C1012.29 533.623 1008.77 537.126 1004.43 537.126C1000.1 537.126 996.581 533.623 996.581 529.302C996.581 512.703 1010 499.141 1026.68 499.141C1043.37 499.141 1056.79 512.703 1056.79 529.302C1056.79 545.901 1043.37 559.464 1026.68 559.464H991.32C986.982 559.464 983.466 555.961 983.466 551.641C983.466 547.32 986.982 543.817 991.32 543.817H1026.68C1034.57 543.817 1041.08 537.378 1041.08 529.302C1041.08 521.227 1034.57 514.787 1026.68 514.787Z" fill="#1D2330"/>
<path fill-rule="evenodd" clip-rule="evenodd" d="M1049.7 156.367C1054.04 156.367 1057.56 159.869 1057.56 164.19V246.529C1057.56 254.34 1063.96 260.74 1071.94 260.74C1079.92 260.74 1086.32 254.34 1086.32 246.529C1086.32 238.717 1079.92 232.317 1071.94 232.317C1067.6 232.317 1064.08 228.815 1064.08 224.494C1064.08 220.174 1067.6 216.671 1071.94 216.671C1088.52 216.671 1102.02 230.001 1102.02 246.529C1102.02 263.056 1088.52 276.386 1071.94 276.386C1055.36 276.386 1041.85 263.056 1041.85 246.529V164.19C1041.85 159.869 1045.37 156.367 1049.7 156.367Z" fill="#1D2330"/>
<path fill-rule="evenodd" clip-rule="evenodd" d="M697.073 151.745C701.41 151.745 704.927 155.248 704.927 159.568V248.672C704.927 265.152 691.345 278.312 674.84 278.312C658.334 278.312 644.753 265.152 644.753 248.672C644.753 232.192 658.334 219.032 674.84 219.032C679.177 219.032 682.694 222.535 682.694 226.855C682.694 231.176 679.177 234.678 674.84 234.678C666.787 234.678 660.461 241.053 660.461 248.672C660.461 256.29 666.787 262.665 674.84 262.665C682.892 262.665 689.219 256.29 689.219 248.672V159.568C689.219 155.248 692.735 151.745 697.073 151.745Z" fill="#1D2330"/>
<path fill-rule="evenodd" clip-rule="evenodd" d="M830.735 159.568C830.735 133.458 851.678 112.076 877.778 112.076C903.878 112.076 924.821 133.458 924.821 159.568C924.821 163.889 921.304 167.391 916.967 167.391C912.629 167.391 909.113 163.889 909.113 159.568C909.113 141.861 894.964 127.722 877.778 127.722C860.592 127.722 846.443 141.861 846.443 159.568C846.443 177.276 860.592 191.414 877.778 191.414H980.493C984.831 191.414 988.347 194.917 988.347 199.238C988.347 203.558 984.831 207.061 980.493 207.061H877.778C851.678 207.061 830.735 185.678 830.735 159.568Z" fill="#1D2330"/>
<path fill-rule="evenodd" clip-rule="evenodd" d="M1119.57 208.481C1119.57 204.16 1123.09 200.658 1127.42 200.658H1230.14C1256.24 200.658 1277.18 222.041 1277.18 248.15C1277.18 274.26 1256.24 295.643 1230.14 295.643C1225.8 295.643 1222.28 292.14 1222.28 287.82C1222.28 283.499 1225.8 279.997 1230.14 279.997C1247.33 279.997 1261.47 265.858 1261.47 248.15C1261.47 230.443 1247.33 216.304 1230.14 216.304H1127.42C1123.09 216.304 1119.57 212.802 1119.57 208.481Z" fill="#1D2330"/>
<path fill-rule="evenodd" clip-rule="evenodd" d="M1115.61 46.0723C1099.65 46.0723 1086.56 59.1295 1086.56 75.4152C1086.56 91.7009 1099.65 104.758 1115.61 104.758H1153.54C1169.51 104.758 1182.59 91.7011 1182.59 75.4152C1182.59 59.1292 1169.51 46.0723 1153.54 46.0723H1115.61ZM1070.85 75.4152C1070.85 50.6483 1090.81 30.426 1115.61 30.426H1153.54C1178.34 30.426 1198.3 50.6485 1198.3 75.4152C1198.3 100.182 1178.34 120.404 1153.54 120.404H1115.61C1090.81 120.404 1070.85 100.182 1070.85 75.4152Z" fill="#1D2330"/>
<path fill-rule="evenodd" clip-rule="evenodd" d="M753.718 240.183C745.337 240.183 738.566 246.935 738.566 255.237V320.403C738.566 328.704 745.337 335.457 753.718 335.457C762.099 335.457 768.87 328.704 768.87 320.403V255.237C768.87 246.935 762.099 240.183 753.718 240.183ZM753.718 351.103C736.687 351.103 722.858 337.37 722.858 320.403V255.237C722.858 238.269 736.687 224.536 753.718 224.536C770.749 224.536 784.578 238.269 784.578 255.237V320.403C784.578 337.37 770.749 351.103 753.718 351.103Z" fill="#1D2330"/>
<path fill-rule="evenodd" clip-rule="evenodd" d="M988.806 269.839C983.16 269.839 978.68 274.35 978.68 279.796V314.202C978.68 318.523 975.164 322.025 970.826 322.025C966.489 322.025 962.972 318.523 962.972 314.202V279.796C962.972 265.602 974.592 254.192 988.806 254.192C1003.02 254.192 1014.64 265.602 1014.64 279.796V348.608C1014.64 362.802 1003.02 374.211 988.806 374.211C974.592 374.211 962.972 362.802 962.972 348.608V340.295C962.972 335.974 966.489 332.472 970.826 332.472C975.164 332.472 978.68 335.974 978.68 340.295V348.608C978.68 354.054 983.16 358.565 988.806 358.565C994.452 358.565 998.932 354.054 998.932 348.608V279.796C998.932 274.35 994.452 269.839 988.806 269.839Z" fill="#1D2330"/>
<path fill-rule="evenodd" clip-rule="evenodd" d="M972.953 16.0314C960.08 16.0314 949.681 26.3921 949.681 39.1277V133.27C949.681 146.006 960.08 156.367 972.953 156.367C985.826 156.367 996.225 146.006 996.225 133.27V130.271C996.225 125.95 999.741 122.448 1004.08 122.448C1008.42 122.448 1011.93 125.95 1011.93 130.271V133.27C1011.93 154.687 994.461 172.013 972.953 172.013C951.445 172.013 933.973 154.687 933.973 133.27V39.1277C933.973 17.7107 951.445 0.385131 972.953 0.385131C994.461 0.385131 1011.93 17.7107 1011.93 39.1277V40.0507C1011.93 44.3713 1008.42 47.8738 1004.08 47.8738C999.741 47.8738 996.225 44.3713 996.225 40.0507V39.1277C996.225 26.3921 985.826 16.0314 972.953 16.0314Z" fill="#1D2330"/>
<path fill-rule="evenodd" clip-rule="evenodd" d="M644.753 398.355C644.753 380.854 658.984 366.653 676.556 366.653H678.416C682.754 366.653 686.27 370.156 686.27 374.476C686.27 378.797 682.754 382.299 678.416 382.299H676.556C667.674 382.299 660.461 389.48 660.461 398.355C660.461 407.23 667.674 414.411 676.556 414.411H731.895C740.777 414.411 747.991 407.23 747.991 398.355C747.991 389.48 740.777 382.299 731.895 382.299H730.035C725.698 382.299 722.181 378.797 722.181 374.476C722.181 370.156 725.698 366.653 730.035 366.653H731.895C749.467 366.653 763.699 380.854 763.699 398.355C763.699 415.856 749.467 430.057 731.895 430.057H676.556C658.984 430.057 644.753 415.856 644.753 398.355Z" fill="#1D2330"/>
<path fill-rule="evenodd" clip-rule="evenodd" d="M941.054 254.192C945.392 254.192 948.908 257.695 948.908 262.015V351.228C948.908 373.507 967.224 391.687 989.966 391.687C1012.71 391.687 1031.02 373.507 1031.02 351.228V330.15C1031.02 325.83 1034.54 322.327 1038.88 322.327C1043.22 322.327 1046.73 325.83 1046.73 330.15V351.228C1046.73 382.281 1021.25 407.334 989.966 407.334C958.682 407.334 933.2 382.281 933.2 351.228V262.015C933.2 257.695 936.716 254.192 941.054 254.192Z" fill="#1D2330"/>
<path fill-rule="evenodd" clip-rule="evenodd" d="M834.989 412.99C834.989 408.67 838.505 405.167 842.843 405.167H923.191C958.149 405.167 986.414 433.541 986.414 468.45C986.414 503.357 958.15 531.734 923.191 531.734H899.02C894.682 531.734 891.166 528.231 891.166 523.911C891.166 519.59 894.682 516.087 899.02 516.087H923.191C949.391 516.087 970.706 494.799 970.706 468.45C970.706 442.1 949.392 420.813 923.191 420.813H842.843C838.505 420.813 834.989 417.311 834.989 412.99Z" fill="#1D2330"/>
<path fill-rule="evenodd" clip-rule="evenodd" d="M858.236 239.413C849.824 239.413 842.963 246.233 842.963 254.698C842.963 263.162 849.824 269.983 858.236 269.983H877.255C881.592 269.983 885.109 273.486 885.109 277.806C885.109 282.127 881.592 285.629 877.255 285.629H858.236C841.103 285.629 827.255 271.758 827.255 254.698C827.255 237.638 841.103 223.766 858.236 223.766H896.273C913.407 223.766 927.255 237.638 927.255 254.698V256.751C927.255 272.677 914.327 285.629 898.328 285.629C893.99 285.629 890.474 282.127 890.474 277.806C890.474 273.486 893.99 269.983 898.328 269.983C905.605 269.983 911.547 264.082 911.547 256.751V254.698C911.547 246.233 904.685 239.413 896.273 239.413H858.236Z" fill="#1D2330"/>
<path fill-rule="evenodd" clip-rule="evenodd" d="M1015.94 164.768C1015.94 146.31 1031.72 132.103 1050.21 132.103H1093.66C1112.15 132.103 1127.93 146.31 1127.93 164.768C1127.93 183.226 1112.15 197.432 1093.66 197.432H1071.94C1067.6 197.432 1064.08 193.93 1064.08 189.609C1064.08 185.289 1067.6 181.786 1071.94 181.786H1093.66C1104.34 181.786 1112.22 173.748 1112.22 164.768C1112.22 155.787 1104.34 147.749 1093.66 147.749H1050.21C1039.53 147.749 1031.65 155.787 1031.65 164.768C1031.65 169.088 1028.14 172.591 1023.8 172.591C1019.46 172.591 1015.94 169.088 1015.94 164.768Z" fill="#1D2330"/>
<path fill-rule="evenodd" clip-rule="evenodd" d="M792.07 145.703C792.07 108.445 822.268 78.1833 859.592 78.1833H911.668C916.006 78.1833 919.522 81.6859 919.522 86.0065C919.522 90.3271 916.006 93.8297 911.668 93.8297H859.592C831.008 93.8297 807.778 117.022 807.778 145.703C807.778 150.024 804.261 153.526 799.924 153.526C795.586 153.526 792.07 150.024 792.07 145.703Z" fill="#1D2330"/>
<path fill-rule="evenodd" clip-rule="evenodd" d="M1188.9 343.545C1193.24 343.545 1196.76 347.047 1196.76 351.368V494.609C1196.76 502.375 1203.14 508.77 1211.13 508.77C1219.13 508.77 1225.51 502.375 1225.51 494.609C1225.51 486.844 1219.13 480.449 1211.13 480.449C1206.8 480.449 1203.28 476.946 1203.28 472.625C1203.28 468.305 1206.8 464.802 1211.13 464.802C1227.7 464.802 1241.22 478.095 1241.22 494.609C1241.22 511.123 1227.7 524.416 1211.13 524.416C1194.57 524.416 1181.05 511.123 1181.05 494.609V351.368C1181.05 347.047 1184.56 343.545 1188.9 343.545Z" fill="#1D2330"/>
<path fill-rule="evenodd" clip-rule="evenodd" d="M1085.14 453.935C1067.23 453.935 1052.53 468.615 1052.53 486.937C1052.53 491.258 1049.02 494.76 1044.68 494.76C1040.34 494.76 1036.82 491.258 1036.82 486.937C1036.82 460.166 1058.36 438.289 1085.14 438.289H1156.42C1160.76 438.289 1164.28 441.792 1164.28 446.112C1164.28 450.433 1160.76 453.935 1156.42 453.935H1085.14Z" fill="#1D2330"/>
<path fill-rule="evenodd" clip-rule="evenodd" d="M1023.8 177.549C1028.14 177.549 1031.65 181.052 1031.65 185.373C1031.65 215.195 1007.45 239.412 977.544 239.412H939.508C935.17 239.412 931.654 235.91 931.654 231.589C931.654 227.269 935.17 223.766 939.508 223.766H977.544C998.729 223.766 1015.94 206.6 1015.94 185.373C1015.94 181.052 1019.46 177.549 1023.8 177.549Z" fill="#1D2330"/>
<path fill-rule="evenodd" clip-rule="evenodd" d="M1161.45 344.315C1165.79 344.315 1169.3 347.818 1169.3 352.138V372.841C1169.3 398.062 1148.77 418.503 1123.44 418.503H1093.78C1089.45 418.503 1085.93 415 1085.93 410.679C1085.93 406.359 1089.45 402.856 1093.78 402.856H1123.44C1140.1 402.856 1153.59 389.415 1153.59 372.841V352.138C1153.59 347.818 1157.11 344.315 1161.45 344.315Z" fill="#1D2330"/>
<path fill-rule="evenodd" clip-rule="evenodd" d="M1150.5 291.671C1150.5 263.808 1172.99 241.098 1200.89 241.098H1233.37C1237.71 241.098 1241.22 244.6 1241.22 248.921C1241.22 253.241 1237.71 256.744 1233.37 256.744H1200.89C1181.8 256.744 1166.21 272.314 1166.21 291.671C1166.21 295.992 1162.69 299.494 1158.36 299.494C1154.02 299.494 1150.5 295.992 1150.5 291.671Z" fill="#1D2330"/>
<path fill-rule="evenodd" clip-rule="evenodd" d="M779.773 473.401C780.658 477.631 777.934 481.775 773.687 482.656C755.354 486.463 742.819 500.715 742.819 516.547V551.64C742.819 555.961 739.303 559.464 734.965 559.464C730.628 559.464 727.111 555.961 727.111 551.64V516.547C727.111 491.968 746.264 472.367 770.482 467.339C774.728 466.457 778.888 469.172 779.773 473.401Z" fill="#1D2330"/>
<path fill-rule="evenodd" clip-rule="evenodd" d="M667.88 125.556C672.218 125.556 675.734 129.058 675.734 133.379V204.244C675.734 208.565 672.218 212.068 667.88 212.068C663.542 212.068 660.026 208.565 660.026 204.244V133.379C660.026 129.058 663.542 125.556 667.88 125.556Z" fill="#1D2330"/>
<path fill-rule="evenodd" clip-rule="evenodd" d="M811.403 551.448C811.403 547.127 814.919 543.625 819.257 543.625H965.8C970.138 543.625 973.654 547.127 973.654 551.448C973.654 555.769 970.138 559.271 965.8 559.271H819.257C814.919 559.271 811.403 555.769 811.403 551.448Z" fill="#1D2330"/>
<path fill-rule="evenodd" clip-rule="evenodd" d="M1071.55 288.47C1075.89 288.47 1079.41 291.972 1079.41 296.293V354.834C1079.41 359.155 1075.89 362.657 1071.55 362.657C1067.21 362.657 1063.7 359.155 1063.7 354.834V296.293C1063.7 291.972 1067.21 288.47 1071.55 288.47Z" fill="#1D2330"/>
<path fill-rule="evenodd" clip-rule="evenodd" d="M1012.01 447.532C1016.34 447.532 1019.86 451.035 1019.86 455.356V479.234C1019.86 483.555 1016.34 487.057 1012.01 487.057C1007.67 487.057 1004.15 483.555 1004.15 479.234V455.356C1004.15 451.035 1007.67 447.532 1012.01 447.532Z" fill="#1D2330"/>
<path fill-rule="evenodd" clip-rule="evenodd" d="M1127.42 226.077C1131.76 226.077 1135.28 229.58 1135.28 233.9V288.717C1135.28 301.724 1124.63 312.152 1111.62 312.152C1107.18 312.152 1103.68 315.699 1103.68 319.947V323.186C1103.68 327.434 1107.18 330.981 1111.62 330.981C1124.63 330.981 1135.28 341.419 1135.28 354.422V358.009C1135.28 372.992 1123 385.036 1107.99 385.036H1083.18C1078.84 385.036 1075.33 381.533 1075.33 377.213C1075.33 372.892 1078.84 369.39 1083.18 369.39H1107.99C1114.44 369.39 1119.57 364.237 1119.57 358.009V354.422C1119.57 350.174 1116.07 346.627 1111.62 346.627C1098.61 346.627 1087.97 336.189 1087.97 323.186V319.947C1087.97 306.944 1098.61 296.506 1111.62 296.506C1116.07 296.506 1119.57 292.962 1119.57 288.717V233.9C1119.57 229.58 1123.09 226.077 1127.42 226.077ZM1068.64 382.035C1072.97 382.035 1076.49 385.537 1076.49 389.858C1076.49 415.472 1055.62 436.219 1029.9 436.219H1019.55C1015.21 436.219 1011.69 432.716 1011.69 428.396C1011.69 424.075 1015.21 420.573 1019.55 420.573H1029.9C1046.96 420.573 1060.78 406.812 1060.78 389.858C1060.78 385.537 1064.3 382.035 1068.64 382.035Z" fill="#1D2330"/>
<path fill-rule="evenodd" clip-rule="evenodd" d="M1135.42 159.338C1135.42 144.062 1147.89 131.718 1163.21 131.718C1178.53 131.718 1191 144.063 1191 159.338V165.809C1191 172.483 1196.45 177.935 1203.23 177.935C1210 177.935 1215.46 172.484 1215.46 165.809V157.997C1215.46 153.677 1218.98 150.174 1223.31 150.174C1227.65 150.174 1231.17 153.677 1231.17 157.997V165.809C1231.17 181.168 1218.64 193.581 1203.23 193.581C1187.82 193.581 1175.29 181.17 1175.29 165.809V159.338C1175.29 152.746 1169.9 147.364 1163.21 147.364C1156.52 147.364 1151.13 152.747 1151.13 159.338V167.302C1151.13 171.622 1147.61 175.125 1143.28 175.125C1138.94 175.125 1135.42 171.622 1135.42 167.302V159.338Z" fill="#1D2330"/>
<path fill-rule="evenodd" clip-rule="evenodd" d="M1099.97 482.821C1088.72 482.821 1079.6 491.905 1079.6 503.1V523.538C1079.6 534.733 1088.72 543.817 1099.97 543.817C1111.22 543.817 1120.34 534.733 1120.34 523.538V503.1C1120.34 491.905 1111.22 482.821 1099.97 482.821ZM1099.97 559.464C1080.05 559.464 1063.89 543.381 1063.89 523.538V503.1C1063.89 483.257 1080.05 467.174 1099.97 467.174C1119.89 467.174 1136.05 483.257 1136.05 503.1V523.538C1136.05 543.381 1119.89 559.464 1099.97 559.464Z" fill="#1D2330"/>
<path fill-rule="evenodd" clip-rule="evenodd" d="M1867.68 384.755C1872.02 384.755 1875.53 388.257 1875.53 392.578C1875.53 400.658 1882.04 407.093 1889.91 407.093C1897.79 407.093 1904.29 400.658 1904.29 392.578C1904.29 388.257 1907.81 384.755 1912.15 384.755C1916.48 384.755 1920 388.257 1920 392.578C1920 409.172 1906.59 422.739 1889.91 422.739C1873.23 422.739 1859.83 409.172 1859.83 392.578C1859.83 388.257 1863.34 384.755 1867.68 384.755Z" fill="#1D2330"/>
<path fill-rule="evenodd" clip-rule="evenodd" d="M1912.14 19.4977C1901.16 19.4977 1892.16 28.4452 1892.16 39.5972C1892.16 50.7492 1901.16 59.6967 1912.14 59.6967C1916.48 59.6967 1920 63.1992 1920 67.5198C1920 71.8404 1916.48 75.343 1912.14 75.343C1892.38 75.343 1876.45 59.2876 1876.45 39.5972C1876.45 19.9067 1892.38 3.85142 1912.14 3.85142C1916.48 3.85142 1920 7.35396 1920 11.6746C1920 15.9952 1916.48 19.4977 1912.14 19.4977Z" fill="#1D2330"/>
<path fill-rule="evenodd" clip-rule="evenodd" d="M1557.19 0.385131C1561.53 0.385131 1565.05 3.88768 1565.05 8.20828V34.3616C1565.05 51.4529 1551.16 65.3293 1533.99 65.3293C1516.83 65.3293 1502.94 51.4529 1502.94 34.3616C1502.94 30.041 1506.46 26.5385 1510.79 26.5385C1515.13 26.5385 1518.65 30.041 1518.65 34.3616C1518.65 42.8348 1525.53 49.683 1533.99 49.683C1542.46 49.683 1549.34 42.8348 1549.34 34.3616V8.20828C1549.34 3.88768 1552.86 0.385131 1557.19 0.385131Z" fill="#1D2330"/>
<path fill-rule="evenodd" clip-rule="evenodd" d="M1346.56 455.861C1321.97 455.861 1302.12 475.589 1302.12 499.839C1302.12 524.089 1321.97 543.817 1346.56 543.817C1350.89 543.817 1354.41 547.32 1354.41 551.641C1354.41 555.961 1350.89 559.464 1346.56 559.464C1313.38 559.464 1286.41 532.811 1286.41 499.839C1286.41 466.867 1313.38 440.215 1346.56 440.215H1394.41C1398.75 440.215 1402.26 443.717 1402.26 448.038C1402.26 452.358 1398.75 455.861 1394.41 455.861H1346.56Z" fill="#1D2330"/>
<path fill-rule="evenodd" clip-rule="evenodd" d="M1343.36 490.524C1337.85 490.524 1333.83 494.766 1333.83 499.454C1333.83 504.142 1337.85 508.384 1343.36 508.384C1347.7 508.384 1351.22 511.887 1351.22 516.208C1351.22 520.528 1347.7 524.031 1343.36 524.031C1329.67 524.031 1318.12 513.273 1318.12 499.454C1318.12 485.635 1329.67 474.877 1343.36 474.877H1361.93C1366.27 474.877 1369.79 478.38 1369.79 482.7C1369.79 487.021 1366.27 490.524 1361.93 490.524H1343.36Z" fill="#1D2330"/>
<path fill-rule="evenodd" clip-rule="evenodd" d="M1285.64 34.3993C1285.64 15.4412 1301.38 0.386615 1320.41 0.386615L1396.34 0.386796C1400.68 0.386806 1404.2 3.88936 1404.2 8.20997C1404.2 12.5306 1400.68 16.0331 1396.34 16.0331L1320.41 16.0329C1309.71 16.0329 1301.35 24.4292 1301.35 34.3993C1301.35 38.7199 1297.83 42.2224 1293.49 42.2224C1289.16 42.2224 1285.64 38.7199 1285.64 34.3993Z" fill="#1D2330"/>
<path fill-rule="evenodd" clip-rule="evenodd" d="M1865.48 43.256C1865.48 19.9831 1846.49 1.15543 1823.11 1.15543L1725.78 1.15567C1721.44 1.15568 1717.92 4.65823 1717.92 8.97884C1717.92 13.2994 1721.44 16.802 1725.78 16.802L1823.11 16.8017C1837.86 16.8017 1849.77 28.6671 1849.77 43.256C1849.77 47.5766 1853.29 51.0792 1857.63 51.0792C1861.96 51.0792 1865.48 47.5766 1865.48 43.256Z" fill="#1D2330"/>
<path fill-rule="evenodd" clip-rule="evenodd" d="M1857.89 120.931C1857.89 103.876 1871.84 90.1228 1888.95 90.1228C1906.05 90.1228 1920 103.876 1920 120.931V185.758C1920 190.078 1916.48 193.581 1912.15 193.581C1907.81 193.581 1904.29 190.078 1904.29 185.758V120.931C1904.29 112.597 1897.46 105.769 1888.95 105.769C1880.43 105.769 1873.6 112.597 1873.6 120.931V130.966C1873.6 135.286 1870.08 138.789 1865.75 138.789C1861.41 138.789 1857.89 135.286 1857.89 130.966V120.931Z" fill="#1D2330"/>
<path fill-rule="evenodd" clip-rule="evenodd" d="M1444.2 226.462C1448.53 226.462 1452.05 229.965 1452.05 234.285V259.044C1452.05 284.89 1473.06 305.827 1498.95 305.827H1520.76C1543.31 305.827 1561.57 324.048 1561.57 346.506C1561.57 350.827 1558.05 354.329 1553.71 354.329C1549.38 354.329 1545.86 350.827 1545.86 346.506C1545.86 332.672 1534.62 321.473 1520.76 321.473H1498.95C1464.37 321.473 1436.34 293.514 1436.34 259.044V234.285C1436.34 229.965 1439.86 226.462 1444.2 226.462ZM1444.81 411.063C1444.81 389.377 1462.55 371.867 1484.33 371.867H1553.71C1558.05 371.867 1561.57 375.369 1561.57 379.69C1561.57 384.01 1558.05 387.513 1553.71 387.513H1484.33C1471.14 387.513 1460.52 398.096 1460.52 411.063C1460.52 424.03 1471.14 434.614 1484.33 434.614H1512.97C1517.31 434.614 1520.82 438.116 1520.82 442.437C1520.82 446.757 1517.31 450.26 1512.97 450.26H1484.33C1462.55 450.26 1444.81 432.75 1444.81 411.063ZM1513.17 467.194C1517.51 467.194 1521.03 470.696 1521.03 475.017C1521.03 497.31 1502.9 515.396 1480.53 515.396H1431.2C1423.34 515.396 1416.96 521.75 1416.96 529.609C1416.96 537.462 1423.34 543.817 1431.2 543.817H1435.33C1439.67 543.817 1443.19 547.32 1443.19 551.641C1443.19 555.961 1439.67 559.464 1435.33 559.464H1431.2C1414.65 559.464 1401.25 546.086 1401.25 529.609C1401.25 513.128 1414.65 499.75 1431.2 499.75H1480.53C1494.21 499.75 1505.32 488.686 1505.32 475.017C1505.32 470.696 1508.84 467.194 1513.17 467.194Z" fill="#1D2330"/>
<path fill-rule="evenodd" clip-rule="evenodd" d="M1497.53 159.183C1497.53 146.354 1507.97 135.954 1520.85 135.954C1533.73 135.954 1544.17 146.354 1544.17 159.183C1544.17 172.012 1533.73 182.412 1520.85 182.412C1507.97 182.412 1497.53 172.012 1497.53 159.183ZM1520.85 151.601C1516.64 151.601 1513.24 154.995 1513.24 159.183C1513.24 163.371 1516.64 166.765 1520.85 166.765C1525.05 166.765 1528.46 163.371 1528.46 159.183C1528.46 154.995 1525.05 151.601 1520.85 151.601Z" fill="#1D2330"/>
<path fill-rule="evenodd" clip-rule="evenodd" d="M1533.1 468.258C1533.1 451.643 1546.72 438.289 1563.38 438.289C1580.04 438.289 1593.66 451.643 1593.66 468.258C1593.66 484.873 1580.04 498.226 1563.38 498.226C1546.72 498.226 1533.1 484.873 1533.1 468.258ZM1563.38 453.935C1555.27 453.935 1548.81 460.411 1548.81 468.258C1548.81 476.104 1555.27 482.58 1563.38 482.58C1571.49 482.58 1577.95 476.104 1577.95 468.258C1577.95 460.411 1571.49 453.935 1563.38 453.935Z" fill="#1D2330"/>
<path fill-rule="evenodd" clip-rule="evenodd" d="M1332.42 106.804C1332.42 89.0828 1346.85 74.717 1364.64 74.717C1382.43 74.717 1396.85 89.0828 1396.85 106.804C1396.85 124.525 1382.43 138.891 1364.64 138.891C1346.85 138.891 1332.42 124.525 1332.42 106.804ZM1364.64 90.3633C1355.52 90.3633 1348.13 97.7241 1348.13 106.804C1348.13 115.884 1355.52 123.245 1364.64 123.245C1373.75 123.245 1381.14 115.884 1381.14 106.804C1381.14 97.7241 1373.75 90.3633 1364.64 90.3633Z" fill="#1D2330"/>
<path fill-rule="evenodd" clip-rule="evenodd" d="M1302.65 106.226C1302.65 72.3405 1330.6 45.0614 1364.83 45.0614C1399.07 45.0614 1427.01 72.3405 1427.01 106.226C1427.01 140.112 1399.07 167.391 1364.83 167.391C1360.49 167.391 1356.98 163.889 1356.98 159.568C1356.98 155.248 1360.49 151.745 1364.83 151.745C1390.6 151.745 1411.3 131.26 1411.3 106.226C1411.3 81.1925 1390.6 60.7077 1364.83 60.7077C1339.06 60.7077 1318.36 81.1925 1318.36 106.226C1318.36 110.547 1314.84 114.05 1310.51 114.05C1306.17 114.05 1302.65 110.547 1302.65 106.226Z" fill="#1D2330"/>
<path fill-rule="evenodd" clip-rule="evenodd" d="M1862.67 436.381C1863.79 432.208 1868.1 429.734 1872.29 430.854C1906.89 440.106 1927.06 475.971 1917.72 510.747C1908.38 545.529 1872.93 566.535 1838.33 557.285C1803.73 548.032 1783.56 512.166 1792.9 477.389C1794.02 473.215 1798.32 470.737 1802.51 471.853C1806.7 472.969 1809.19 477.258 1808.07 481.432C1800.9 508.134 1816.44 535.231 1842.4 542.174C1868.35 549.111 1895.38 533.403 1902.54 506.705C1909.71 480.002 1894.17 452.907 1868.22 445.965C1864.03 444.845 1861.54 440.554 1862.67 436.381Z" fill="#1D2330"/>
<path fill-rule="evenodd" clip-rule="evenodd" d="M1440.37 350.702C1451.44 342.116 1465.12 336.997 1479.94 336.997H1520.46C1524.8 336.997 1528.32 340.5 1528.32 344.82C1528.32 349.141 1524.8 352.644 1520.46 352.644H1479.94C1468.83 352.644 1458.51 356.461 1450.03 363.045C1446.61 365.701 1441.67 365.09 1439.01 361.682C1436.34 358.273 1436.95 353.358 1440.37 350.702ZM1432.94 369.338C1436.72 371.453 1438.07 376.222 1435.94 379.99C1431.03 388.7 1428.17 399.008 1428.17 410.106C1428.17 442.31 1451.94 467.174 1479.8 467.174C1484.13 467.174 1487.65 470.677 1487.65 474.998C1487.65 479.318 1484.13 482.821 1479.8 482.821C1441.95 482.821 1412.46 449.58 1412.46 410.106C1412.46 396.315 1416.02 383.37 1422.25 372.329C1424.37 368.562 1429.16 367.223 1432.94 369.338Z" fill="#1D2330"/>
<path fill-rule="evenodd" clip-rule="evenodd" d="M1390.42 189.417C1390.42 172.865 1403.89 159.448 1420.51 159.448C1424.85 159.448 1428.36 162.95 1428.36 167.271C1428.36 171.592 1424.85 175.094 1420.51 175.094C1412.57 175.094 1406.13 181.506 1406.13 189.417C1406.13 197.327 1412.57 203.739 1420.51 203.739C1428.45 203.739 1434.89 197.327 1434.89 189.417V167.271C1434.89 162.95 1438.4 159.448 1442.74 159.448C1447.08 159.448 1450.6 162.95 1450.6 167.271V189.417C1450.6 205.968 1437.13 219.385 1420.51 219.385C1403.89 219.385 1390.42 205.968 1390.42 189.417Z" fill="#1D2330"/>
<path fill-rule="evenodd" clip-rule="evenodd" d="M1419.42 8.20828C1419.42 3.88768 1422.94 0.385131 1427.28 0.385131H1456.66C1477.28 0.385131 1493.9 17.1272 1493.9 37.6715C1493.9 58.2156 1477.28 74.9578 1456.66 74.9578C1436.05 74.9578 1419.42 58.2156 1419.42 37.6715C1419.42 33.3509 1422.94 29.8483 1427.28 29.8483C1431.61 29.8483 1435.13 33.3509 1435.13 37.6715C1435.13 49.6713 1444.82 59.3115 1456.66 59.3115C1468.51 59.3115 1478.19 49.6713 1478.19 37.6715C1478.19 25.6716 1468.51 16.0314 1456.66 16.0314H1427.28C1422.94 16.0314 1419.42 12.5289 1419.42 8.20828Z" fill="#1D2330"/>
<path fill-rule="evenodd" clip-rule="evenodd" d="M1321.14 298.724C1311.2 298.724 1303.28 306.645 1303.28 316.24C1303.28 325.835 1311.2 333.755 1321.14 333.755C1325.48 333.755 1328.99 337.258 1328.99 341.579C1328.99 345.899 1325.48 349.402 1321.14 349.402C1302.68 349.402 1287.57 334.634 1287.57 316.24C1287.57 297.846 1302.68 283.078 1321.14 283.078C1339.6 283.078 1354.71 297.846 1354.71 316.24V393.733C1354.71 398.054 1351.19 401.556 1346.85 401.556C1342.51 401.556 1339 398.054 1339 393.733V316.24C1339 306.645 1331.08 298.724 1321.14 298.724Z" fill="#1D2330"/>
<path fill-rule="evenodd" clip-rule="evenodd" d="M1796.41 319.401C1796.41 315.081 1799.93 311.578 1804.27 311.578H1881.99C1899.26 311.578 1913.04 325.722 1913.04 342.895C1913.04 360.068 1899.26 374.211 1881.99 374.211C1864.71 374.211 1850.93 360.07 1850.93 342.895C1850.93 338.574 1854.44 335.072 1858.78 335.072C1863.12 335.072 1866.64 338.574 1866.64 342.895C1866.64 351.67 1873.63 358.565 1881.99 358.565C1890.34 358.565 1897.33 351.672 1897.33 342.895C1897.33 334.118 1890.34 327.224 1881.99 327.224H1804.27C1799.93 327.224 1796.41 323.722 1796.41 319.401Z" fill="#1D2330"/>
<path fill-rule="evenodd" clip-rule="evenodd" d="M1691.75 0C1696.09 0 1699.6 3.50254 1699.6 7.82315V85.9662C1699.6 103.813 1684.9 118.093 1667 118.093C1649.1 118.093 1634.4 103.813 1634.4 85.9662C1634.4 68.1192 1649.1 53.839 1667 53.839C1671.34 53.839 1674.86 57.3415 1674.86 61.6622C1674.86 65.9828 1671.34 69.4853 1667 69.4853C1657.57 69.4853 1650.11 76.9675 1650.11 85.9662C1650.11 94.965 1657.57 102.447 1667 102.447C1676.44 102.447 1683.9 94.965 1683.9 85.9662V7.82315C1683.9 3.50254 1687.41 0 1691.75 0Z" fill="#1D2330"/>
<path fill-rule="evenodd" clip-rule="evenodd" d="M1669.5 514.787C1661.61 514.787 1655.11 521.227 1655.11 529.302C1655.11 533.623 1651.59 537.126 1647.25 537.126C1642.92 537.126 1639.4 533.623 1639.4 529.302C1639.4 512.703 1652.82 499.141 1669.5 499.141C1686.19 499.141 1699.6 512.703 1699.6 529.302C1699.6 545.901 1686.19 559.464 1669.5 559.464H1634.14C1629.8 559.464 1626.28 555.961 1626.28 551.641C1626.28 547.32 1629.8 543.817 1634.14 543.817H1669.5C1677.39 543.817 1683.9 537.378 1683.9 529.302C1683.9 521.227 1677.39 514.787 1669.5 514.787Z" fill="#1D2330"/>
<path fill-rule="evenodd" clip-rule="evenodd" d="M1692.52 156.367C1696.86 156.367 1700.38 159.869 1700.38 164.19V246.529C1700.38 254.34 1706.78 260.74 1714.76 260.74C1722.74 260.74 1729.14 254.34 1729.14 246.529C1729.14 238.717 1722.74 232.317 1714.76 232.317C1710.42 232.317 1706.9 228.815 1706.9 224.494C1706.9 220.174 1710.42 216.671 1714.76 216.671C1731.34 216.671 1744.84 230.001 1744.84 246.529C1744.84 263.056 1731.34 276.386 1714.76 276.386C1698.18 276.386 1684.67 263.056 1684.67 246.529V164.19C1684.67 159.869 1688.19 156.367 1692.52 156.367Z" fill="#1D2330"/>
<path fill-rule="evenodd" clip-rule="evenodd" d="M1339.89 151.745C1344.23 151.745 1347.75 155.248 1347.75 159.568V248.672C1347.75 265.152 1334.16 278.312 1317.66 278.312C1301.15 278.312 1287.57 265.152 1287.57 248.672C1287.57 232.192 1301.15 219.032 1317.66 219.032C1322 219.032 1325.51 222.535 1325.51 226.855C1325.51 231.176 1322 234.678 1317.66 234.678C1309.61 234.678 1303.28 241.053 1303.28 248.672C1303.28 256.29 1309.61 262.665 1317.66 262.665C1325.71 262.665 1332.04 256.29 1332.04 248.672V159.568C1332.04 155.248 1335.55 151.745 1339.89 151.745Z" fill="#1D2330"/>
<path fill-rule="evenodd" clip-rule="evenodd" d="M1473.55 159.568C1473.55 133.458 1494.5 112.076 1520.6 112.076C1546.7 112.076 1567.64 133.458 1567.64 159.568C1567.64 163.889 1564.12 167.391 1559.79 167.391C1555.45 167.391 1551.93 163.889 1551.93 159.568C1551.93 141.861 1537.78 127.722 1520.6 127.722C1503.41 127.722 1489.26 141.861 1489.26 159.568C1489.26 177.276 1503.41 191.414 1520.6 191.414H1623.31C1627.65 191.414 1631.17 194.917 1631.17 199.238C1631.17 203.558 1627.65 207.061 1623.31 207.061H1520.6C1494.5 207.061 1473.55 185.678 1473.55 159.568Z" fill="#1D2330"/>
<path fill-rule="evenodd" clip-rule="evenodd" d="M1762.39 208.481C1762.39 204.16 1765.9 200.658 1770.24 200.658H1872.96C1899.06 200.658 1920 222.041 1920 248.15C1920 274.26 1899.06 295.643 1872.96 295.643C1868.62 295.643 1865.1 292.14 1865.1 287.82C1865.1 283.499 1868.62 279.997 1872.96 279.997C1890.15 279.997 1904.29 265.858 1904.29 248.15C1904.29 230.443 1890.15 216.304 1872.96 216.304H1770.24C1765.9 216.304 1762.39 212.802 1762.39 208.481Z" fill="#1D2330"/>
<path fill-rule="evenodd" clip-rule="evenodd" d="M1758.43 46.0723C1742.47 46.0723 1729.38 59.1295 1729.38 75.4152C1729.38 91.7009 1742.47 104.758 1758.43 104.758H1796.36C1812.33 104.758 1825.41 91.7011 1825.41 75.4152C1825.41 59.1292 1812.33 46.0723 1796.36 46.0723H1758.43ZM1713.67 75.4152C1713.67 50.6483 1733.63 30.426 1758.43 30.426H1796.36C1821.16 30.426 1841.12 50.6485 1841.12 75.4152C1841.12 100.182 1821.16 120.404 1796.36 120.404H1758.43C1733.63 120.404 1713.67 100.182 1713.67 75.4152Z" fill="#1D2330"/>
<path fill-rule="evenodd" clip-rule="evenodd" d="M1396.54 240.183C1388.16 240.183 1381.38 246.935 1381.38 255.237V320.403C1381.38 328.704 1388.16 335.457 1396.54 335.457C1404.92 335.457 1411.69 328.704 1411.69 320.403V255.237C1411.69 246.935 1404.92 240.183 1396.54 240.183ZM1396.54 351.103C1379.51 351.103 1365.68 337.37 1365.68 320.403V255.237C1365.68 238.269 1379.51 224.536 1396.54 224.536C1413.57 224.536 1427.4 238.269 1427.4 255.237V320.403C1427.4 337.37 1413.57 351.103 1396.54 351.103Z" fill="#1D2330"/>
<path fill-rule="evenodd" clip-rule="evenodd" d="M1631.63 269.839C1625.98 269.839 1621.5 274.35 1621.5 279.796V314.202C1621.5 318.523 1617.98 322.025 1613.65 322.025C1609.31 322.025 1605.79 318.523 1605.79 314.202V279.796C1605.79 265.602 1617.41 254.192 1631.63 254.192C1645.84 254.192 1657.46 265.602 1657.46 279.796V348.608C1657.46 362.802 1645.84 374.211 1631.63 374.211C1617.41 374.211 1605.79 362.802 1605.79 348.608V340.295C1605.79 335.974 1609.31 332.472 1613.65 332.472C1617.98 332.472 1621.5 335.974 1621.5 340.295V348.608C1621.5 354.054 1625.98 358.565 1631.63 358.565C1637.27 358.565 1641.75 354.054 1641.75 348.608V279.796C1641.75 274.35 1637.27 269.839 1631.63 269.839Z" fill="#1D2330"/>
<path fill-rule="evenodd" clip-rule="evenodd" d="M1615.77 16.0314C1602.9 16.0314 1592.5 26.3921 1592.5 39.1277V133.27C1592.5 146.006 1602.9 156.367 1615.77 156.367C1628.65 156.367 1639.04 146.006 1639.04 133.27V130.271C1639.04 125.95 1642.56 122.448 1646.9 122.448C1651.24 122.448 1654.75 125.95 1654.75 130.271V133.27C1654.75 154.687 1637.28 172.013 1615.77 172.013C1594.26 172.013 1576.79 154.687 1576.79 133.27V39.1277C1576.79 17.7107 1594.26 0.385131 1615.77 0.385131C1637.28 0.385131 1654.75 17.7107 1654.75 39.1277V40.0507C1654.75 44.3713 1651.24 47.8738 1646.9 47.8738C1642.56 47.8738 1639.04 44.3713 1639.04 40.0507V39.1277C1639.04 26.3921 1628.65 16.0314 1615.77 16.0314Z" fill="#1D2330"/>
<path fill-rule="evenodd" clip-rule="evenodd" d="M1287.57 398.355C1287.57 380.854 1301.8 366.653 1319.38 366.653H1321.24C1325.57 366.653 1329.09 370.156 1329.09 374.476C1329.09 378.797 1325.57 382.299 1321.24 382.299H1319.38C1310.49 382.299 1303.28 389.48 1303.28 398.355C1303.28 407.23 1310.49 414.411 1319.38 414.411H1374.71C1383.6 414.411 1390.81 407.23 1390.81 398.355C1390.81 389.48 1383.6 382.299 1374.71 382.299H1372.85C1368.52 382.299 1365 378.797 1365 374.476C1365 370.156 1368.52 366.653 1372.85 366.653H1374.71C1392.29 366.653 1406.52 380.854 1406.52 398.355C1406.52 415.856 1392.29 430.057 1374.71 430.057H1319.38C1301.8 430.057 1287.57 415.856 1287.57 398.355Z" fill="#1D2330"/>
<path fill-rule="evenodd" clip-rule="evenodd" d="M1583.87 254.192C1588.21 254.192 1591.73 257.695 1591.73 262.015V351.228C1591.73 373.507 1610.04 391.687 1632.79 391.687C1655.53 391.687 1673.84 373.507 1673.84 351.228V330.15C1673.84 325.83 1677.36 322.327 1681.7 322.327C1686.04 322.327 1689.55 325.83 1689.55 330.15V351.228C1689.55 382.281 1664.07 407.334 1632.79 407.334C1601.5 407.334 1576.02 382.281 1576.02 351.228V262.015C1576.02 257.695 1579.54 254.192 1583.87 254.192Z" fill="#1D2330"/>
<path fill-rule="evenodd" clip-rule="evenodd" d="M1477.81 412.99C1477.81 408.67 1481.32 405.167 1485.66 405.167H1566.01C1600.97 405.167 1629.23 433.541 1629.23 468.45C1629.23 503.357 1600.97 531.734 1566.01 531.734H1541.84C1537.5 531.734 1533.98 528.231 1533.98 523.911C1533.98 519.59 1537.5 516.087 1541.84 516.087H1566.01C1592.21 516.087 1613.53 494.799 1613.53 468.45C1613.53 442.1 1592.21 420.813 1566.01 420.813H1485.66C1481.32 420.813 1477.81 417.311 1477.81 412.99Z" fill="#1D2330"/>
<path fill-rule="evenodd" clip-rule="evenodd" d="M1501.06 239.413C1492.64 239.413 1485.78 246.233 1485.78 254.698C1485.78 263.162 1492.64 269.983 1501.06 269.983H1520.07C1524.41 269.983 1527.93 273.486 1527.93 277.806C1527.93 282.127 1524.41 285.629 1520.07 285.629H1501.06C1483.92 285.629 1470.07 271.758 1470.07 254.698C1470.07 237.638 1483.92 223.766 1501.06 223.766H1539.09C1556.23 223.766 1570.07 237.638 1570.07 254.698V256.751C1570.07 272.677 1557.15 285.629 1541.15 285.629C1536.81 285.629 1533.29 282.127 1533.29 277.806C1533.29 273.486 1536.81 269.983 1541.15 269.983C1548.42 269.983 1554.37 264.082 1554.37 256.751V254.698C1554.37 246.233 1547.5 239.413 1539.09 239.413H1501.06Z" fill="#1D2330"/>
<path fill-rule="evenodd" clip-rule="evenodd" d="M1658.76 164.768C1658.76 146.31 1674.54 132.103 1693.03 132.103H1736.48C1754.97 132.103 1770.75 146.31 1770.75 164.768C1770.75 183.226 1754.97 197.432 1736.48 197.432H1714.76C1710.42 197.432 1706.9 193.93 1706.9 189.609C1706.9 185.289 1710.42 181.786 1714.76 181.786H1736.48C1747.16 181.786 1755.04 173.748 1755.04 164.768C1755.04 155.787 1747.16 147.749 1736.48 147.749H1693.03C1682.35 147.749 1674.47 155.787 1674.47 164.768C1674.47 169.088 1670.96 172.591 1666.62 172.591C1662.28 172.591 1658.76 169.088 1658.76 164.768Z" fill="#1D2330"/>
<path fill-rule="evenodd" clip-rule="evenodd" d="M1434.89 145.703C1434.89 108.445 1465.09 78.1833 1502.41 78.1833H1554.49C1558.82 78.1833 1562.34 81.6859 1562.34 86.0065C1562.34 90.3271 1558.82 93.8297 1554.49 93.8297H1502.41C1473.83 93.8297 1450.6 117.022 1450.6 145.703C1450.6 150.024 1447.08 153.526 1442.74 153.526C1438.41 153.526 1434.89 150.024 1434.89 145.703Z" fill="#1D2330"/>
<path fill-rule="evenodd" clip-rule="evenodd" d="M1831.72 343.545C1836.06 343.545 1839.57 347.047 1839.57 351.368V494.609C1839.57 502.375 1845.96 508.77 1853.95 508.77C1861.95 508.77 1868.33 502.375 1868.33 494.609C1868.33 486.844 1861.95 480.449 1853.95 480.449C1849.62 480.449 1846.1 476.946 1846.1 472.625C1846.1 468.305 1849.62 464.802 1853.95 464.802C1870.52 464.802 1884.04 478.095 1884.04 494.609C1884.04 511.123 1870.52 524.416 1853.95 524.416C1837.39 524.416 1823.87 511.123 1823.87 494.609V351.368C1823.87 347.047 1827.38 343.545 1831.72 343.545Z" fill="#1D2330"/>
<path fill-rule="evenodd" clip-rule="evenodd" d="M1727.96 453.935C1710.04 453.935 1695.35 468.615 1695.35 486.937C1695.35 491.258 1691.83 494.76 1687.5 494.76C1683.16 494.76 1679.64 491.258 1679.64 486.937C1679.64 460.166 1701.18 438.289 1727.96 438.289H1799.24C1803.58 438.289 1807.1 441.792 1807.1 446.112C1807.1 450.433 1803.58 453.935 1799.24 453.935H1727.96Z" fill="#1D2330"/>
<path fill-rule="evenodd" clip-rule="evenodd" d="M1666.62 177.549C1670.96 177.549 1674.47 181.052 1674.47 185.373C1674.47 215.195 1650.27 239.412 1620.36 239.412H1582.33C1577.99 239.412 1574.47 235.91 1574.47 231.589C1574.47 227.269 1577.99 223.766 1582.33 223.766H1620.36C1641.55 223.766 1658.76 206.6 1658.76 185.373C1658.76 181.052 1662.28 177.549 1666.62 177.549Z" fill="#1D2330"/>
<path fill-rule="evenodd" clip-rule="evenodd" d="M1804.27 344.315C1808.61 344.315 1812.12 347.818 1812.12 352.138V372.841C1812.12 398.062 1791.59 418.503 1766.26 418.503H1736.6C1732.27 418.503 1728.75 415 1728.75 410.679C1728.75 406.359 1732.27 402.856 1736.6 402.856H1766.26C1782.92 402.856 1796.41 389.415 1796.41 372.841V352.138C1796.41 347.818 1799.93 344.315 1804.27 344.315Z" fill="#1D2330"/>
<path fill-rule="evenodd" clip-rule="evenodd" d="M1793.32 291.671C1793.32 263.808 1815.81 241.098 1843.7 241.098H1876.19C1880.52 241.098 1884.04 244.6 1884.04 248.921C1884.04 253.241 1880.52 256.744 1876.19 256.744H1843.7C1824.62 256.744 1809.03 272.314 1809.03 291.671C1809.03 295.992 1805.51 299.494 1801.18 299.494C1796.84 299.494 1793.32 295.992 1793.32 291.671Z" fill="#1D2330"/>
<path fill-rule="evenodd" clip-rule="evenodd" d="M1422.59 473.401C1423.48 477.631 1420.75 481.775 1416.51 482.656C1398.17 486.463 1385.64 500.715 1385.64 516.547V551.64C1385.64 555.961 1382.12 559.464 1377.78 559.464C1373.45 559.464 1369.93 555.961 1369.93 551.64V516.547C1369.93 491.968 1389.08 472.367 1413.3 467.339C1417.55 466.457 1421.71 469.172 1422.59 473.401Z" fill="#1D2330"/>
<path fill-rule="evenodd" clip-rule="evenodd" d="M1310.7 125.556C1315.04 125.556 1318.55 129.058 1318.55 133.379V204.244C1318.55 208.565 1315.04 212.068 1310.7 212.068C1306.36 212.068 1302.84 208.565 1302.84 204.244V133.379C1302.84 129.058 1306.36 125.556 1310.7 125.556Z" fill="#1D2330"/>
<path fill-rule="evenodd" clip-rule="evenodd" d="M1454.22 551.448C1454.22 547.127 1457.74 543.625 1462.08 543.625H1608.62C1612.96 543.625 1616.47 547.127 1616.47 551.448C1616.47 555.769 1612.96 559.271 1608.62 559.271H1462.08C1457.74 559.271 1454.22 555.769 1454.22 551.448Z" fill="#1D2330"/>
<path fill-rule="evenodd" clip-rule="evenodd" d="M1714.37 288.47C1718.71 288.47 1722.22 291.972 1722.22 296.293V354.834C1722.22 359.155 1718.71 362.657 1714.37 362.657C1710.03 362.657 1706.52 359.155 1706.52 354.834V296.293C1706.52 291.972 1710.03 288.47 1714.37 288.47Z" fill="#1D2330"/>
<path fill-rule="evenodd" clip-rule="evenodd" d="M1654.83 447.532C1659.16 447.532 1662.68 451.035 1662.68 455.356V479.234C1662.68 483.555 1659.16 487.057 1654.83 487.057C1650.49 487.057 1646.97 483.555 1646.97 479.234V455.356C1646.97 451.035 1650.49 447.532 1654.83 447.532Z" fill="#1D2330"/>
<path fill-rule="evenodd" clip-rule="evenodd" d="M1770.24 226.077C1774.58 226.077 1778.1 229.58 1778.1 233.9V288.717C1778.1 301.724 1767.44 312.152 1754.44 312.152C1749.99 312.152 1746.49 315.699 1746.49 319.947V323.186C1746.49 327.434 1750 330.981 1754.44 330.981C1767.45 330.981 1778.1 341.419 1778.1 354.422V358.009C1778.1 372.992 1765.82 385.036 1750.81 385.036H1726C1721.66 385.036 1718.15 381.533 1718.15 377.213C1718.15 372.892 1721.66 369.39 1726 369.39H1750.81C1757.26 369.39 1762.39 364.237 1762.39 358.009V354.422C1762.39 350.174 1758.89 346.627 1754.44 346.627C1741.43 346.627 1730.79 336.189 1730.79 323.186V319.947C1730.79 306.944 1741.43 296.506 1754.44 296.506C1758.89 296.506 1762.39 292.962 1762.39 288.717V233.9C1762.39 229.58 1765.9 226.077 1770.24 226.077ZM1711.45 382.035C1715.79 382.035 1719.31 385.537 1719.31 389.858C1719.31 415.472 1698.44 436.219 1672.72 436.219H1662.36C1658.03 436.219 1654.51 432.716 1654.51 428.396C1654.51 424.075 1658.03 420.573 1662.36 420.573H1672.72C1689.78 420.573 1703.6 406.812 1703.6 389.858C1703.6 385.537 1707.12 382.035 1711.45 382.035Z" fill="#1D2330"/>
<path fill-rule="evenodd" clip-rule="evenodd" d="M1778.24 159.338C1778.24 144.062 1790.7 131.718 1806.03 131.718C1821.35 131.718 1833.81 144.063 1833.81 159.338V165.809C1833.81 172.483 1839.27 177.935 1846.05 177.935C1852.82 177.935 1858.28 172.484 1858.28 165.809V157.997C1858.28 153.677 1861.8 150.174 1866.13 150.174C1870.47 150.174 1873.99 153.677 1873.99 157.997V165.809C1873.99 181.168 1861.45 193.581 1846.05 193.581C1830.64 193.581 1818.11 181.17 1818.11 165.809V159.338C1818.11 152.746 1812.72 147.364 1806.03 147.364C1799.34 147.364 1793.95 152.747 1793.95 159.338V167.302C1793.95 171.622 1790.43 175.125 1786.09 175.125C1781.76 175.125 1778.24 171.622 1778.24 167.302V159.338Z" fill="#1D2330"/>
<path fill-rule="evenodd" clip-rule="evenodd" d="M1742.79 482.821C1731.54 482.821 1722.42 491.905 1722.42 503.1V523.538C1722.42 534.733 1731.54 543.817 1742.79 543.817C1754.04 543.817 1763.16 534.733 1763.16 523.538V503.1C1763.16 491.905 1754.04 482.821 1742.79 482.821ZM1742.79 559.464C1722.87 559.464 1706.71 543.381 1706.71 523.538V503.1C1706.71 483.257 1722.87 467.174 1742.79 467.174C1762.71 467.174 1778.87 483.257 1778.87 503.1V523.538C1778.87 543.381 1762.71 559.464 1742.79 559.464Z" fill="#1D2330"/>
</g>
</svg>
